<?xml version="1.0" encoding="utf-8"?>
<!-- Generator: Adobe Illustrator 23.0.2, SVG Export Plug-In . SVG Version: 6.00 Build 0)  -->
<svg version="1.1" id="Layer_1" xmlns="http://www.w3.org/2000/svg" xmlns:xlink="http://www.w3.org/1999/xlink" x="0px" y="0px"
	 viewBox="0 0 1920 1080" style="enable-background:new 0 0 1920 1080;" xml:space="preserve">
<style type="text/css">
	.st0{fill:#84BD00;}
	.st1{fill:#7E909E;}
	.st2{fill:#2DCCD3;}
	.st3{fill:#F1BE48;}
</style>
<path class="st0" d="M1709.1,167c-16.5,0-29.9,12.5-30,27.7c0,15.3,13.5,27.7,30,27.7s29.9-12.4,29.9-27.7S1725.6,167,1709.1,167z
	 M1709.1,216.1c-13,0-23.5-9.6-23.5-21.3s10.5-21.3,23.5-21.3c12.9,0,23.5,9.6,23.5,21.3S1722.1,216.1,1709.1,216.1z"/>
<path class="st1" d="M1842.9,648.2c-0.8-0.3-1.7-0.1-2.3,0.4c-0.3,0.2-0.5,0.5-0.6,0.6l-21.3,43.6c-0.4,0.9-0.3,2,0.4,2.7
	c0.6,0.8,1.7,1,2.6,0.6c0.6-0.2,60.6-25.2,63.7-26.4c0.9-0.3,1.6-1.4,1.6-2.4C1887,665.4,1886.9,663.6,1842.9,648.2z M1825.5,689.5
	l17.7-36.1c14.5,5,29.5,10.7,36.2,13.7C1868.3,671.7,1838.3,684.2,1825.5,689.5z"/>
<path class="st2" d="M399,88.3c-0.6-0.7-1.5-1.1-2.4-1.1c-0.8,0-1.6,0.3-2.1,0.8l-17.2,15.1l-16.4-15.6c-0.6-0.6-1.4-0.9-2.2-0.9
	s-1.6,0.3-2.3,1c-1.2,1.2-1.2,3.3,0.1,4.5l16.1,15.3L356,122c-1.3,1.1-1.5,3.2-0.3,4.5c1.1,1.3,3.2,1.5,4.5,0.3l17-15l16.4,15.6
	c1.2,1.2,3.3,1.2,4.5-0.1c1.2-1.2,1.2-3.3-0.1-4.5l-16-15.2l16.7-14.8C400,91.7,400.2,89.6,399,88.3z"/>
<path class="st3" d="M1535.6,1030.8c-16.7-10.6-33.6,0.1-34.3,0.6c-0.6,0.3-14.2,8.9-27.3,0.5c-13.3-8.5-13-26.5-13-26.8l0,0
	c0-0.6,0.3-11.3-5.4-21.2c-2.3-4.1-5.7-8.1-10.5-11.2c-16.7-10.6-33.6,0.1-34.3,0.6c-0.1,0.1-14.1,9-27.3,0.5
	c-12-7.7-12.9-23.2-13-26.3c0.1-0.2,0.1-0.4,0.1-0.6c0-0.6,0.3-11.3-5.4-21.2c-2.4-4.1-5.7-8.1-10.6-11.2c-1.5-0.9-3.4-0.5-4.4,1
	c-0.9,1.4-0.5,3.4,1,4.4c12,7.8,12.9,23.2,13,26.3c-0.1,0.2-0.1,0.4-0.1,0.6c0,0.9-0.5,21.8,15.9,32.4c16.7,10.6,33.6-0.1,34.3-0.6
	c0.1-0.1,14.1-9,27.3-0.5c13.3,8.5,13,26.6,13,26.8l0,0c0,0.9-0.5,21.8,15.9,32.4c16.7,10.6,33.6-0.1,34.3-0.6
	c0.1-0.1,14.1-9,27.3-0.5c13.3,8.6,13,26.6,13,26.8c-0.1,1.8,1.3,3.2,3.1,3.3s3.2-1.3,3.3-3.1c0-0.6,0.3-11.3-5.4-21.2
	C1543.7,1037.9,1540.4,1033.9,1535.6,1030.8z"/>
<path class="st1" d="M75.2,932.7l-41.3-21.4c-1.5-0.8-3.3-0.2-4,1.3c-0.8,1.5-0.2,3.3,1.3,4L72.5,938c0.4,0.2,0.9,0.3,1.4,0.3
	c1.1,0,2.1-0.6,2.7-1.6C77.2,935.3,76.7,933.5,75.2,932.7z"/>
</svg>
