<svg enable-background="new 0 0 1920 1080" viewBox="0 0 1920 1080" xmlns="http://www.w3.org/2000/svg"><g fill="#7e909e"><path d="m626.9 829.5c-4.4 0-8 3.4-8 7.5s3.6 7.5 8 7.5 8-3.4 8-7.5-3.6-7.5-8-7.5zm0 13c-3.3 0-6-2.5-6-5.5s2.7-5.5 6-5.5 6 2.5 6 5.5-2.7 5.5-6 5.5z" opacity=".25"/><path d="m268.8 811.8c-4.1 0-7.5 3.6-7.5 8s3.4 8 7.5 8 7.5-3.6 7.5-8-3.4-8-7.5-8zm0 14c-3 0-5.5-2.7-5.5-6s2.5-6 5.5-6 5.5 2.7 5.5 6-2.5 6-5.5 6z" opacity=".25"/><path d="m84 783.1 3.9-4.4c.4-.4.3-1-.1-1.4s-1-.3-1.4.1l-3.8 4.3-3.9-4.1c-.4-.4-1-.4-1.4 0s-.4 1 0 1.4l4 4.2-3.9 4.4c-.4.4-.3 1 .1 1.4.2.2.4.2.7.2s.6-.1.8-.3l3.8-4.3 3.9 4.1c.2.2.5.3.7.3s.5-.1.7-.3c.4-.4.4-1 0-1.4z" opacity=".25"/><path d="m26.6 586.4c-.4-.2-.9-.1-1.2.1-.6.6-16.7 14.1-17.8 15-.2.1-.4.3-.4.6-.1.5.1 1 .6 1.2.1 0 .2.1.3.1l15.9 2.2h.1c.5 0 .9-.4 1-.8 2.7-17.7 2.3-18 1.5-18.4zm-3.3 17.1-12.8-1.8c1.4-1.1 3.5-2.9 7-5.8 1.1-.9 5.3-4.4 7.7-6.5-.3 3.1-1.2 9.3-1.9 14.1z" opacity=".25"/><path d="m371.1 1010.8-12.2-4.6c-.5-.2-1.1.1-1.3.6s.1 1.1.6 1.3l12.2 4.6c.1 0 .2.1.4.1.4 0 .8-.2.9-.6.1-.7-.1-1.2-.6-1.4z" opacity=".25"/><path d="m146.7 1073.7c-.2 0-4.3-.5-5.6-4.4-1.3-4 1.7-7.5 1.7-7.5.1-.2 3.6-4.4 2-9.4-1.7-5-7-5.7-7.2-5.8-.2 0-.3 0-.5.1-.9-.2-4.2-1-5.3-4.4-1.3-4 1.7-7.5 1.7-7.5.2-.2 3.7-4.5 2.1-9.5-1.7-5-7-5.7-7.2-5.8-.1 0-.3 0-.4 0-1.1-.2-4.1-1.2-5.2-4.3-.2-.5-.7-.8-1.3-.6-.5.2-.8.7-.6 1.3 1.7 5 7 5.7 7.2 5.8h.1.2c1.1.2 4.1 1.1 5.2 4.4 1.3 3.9-1.7 7.5-1.7 7.5-.2.2-3.8 4.4-2.1 9.5 1.7 5.2 7 5.8 7.2 5.8h.1c.1 0 .2 0 .3-.1 1 .2 4.2 1.1 5.3 4.4 1.3 3.9-1.6 7.4-1.6 7.4-.2.2-3.8 4.4-2.1 9.5 1.7 5.2 7 5.8 7.2 5.8h.1c.5 0 .9-.4 1-.9.4-.7 0-1.2-.6-1.3z" opacity=".25"/><path d="m1393.4 1058c-4.4 0-8 3.4-8 7.5s3.6 7.5 8 7.5 8-3.4 8-7.5-3.6-7.5-8-7.5zm0 13c-3.3 0-6-2.5-6-5.5s2.7-5.5 6-5.5 6 2.5 6 5.5-2.7 5.5-6 5.5z" opacity=".25"/><path d="m1261.6 923.3c-.5-.2-1.1.1-1.3.6l-4.7 12.2c-.2.5.1 1.1.6 1.3.1 0 .2.1.4.1.4 0 .8-.2.9-.6l4.7-12.2c.1-.7-.1-1.2-.6-1.4z" opacity=".25"/><path d="m1056.7 830.2c-.2 0-.5.1-.6.3-1.3-.1-4.1-.7-5.6-3.5-2-3.7.4-7.7.5-7.7.1-.2 2.8-4.9.5-9.7-2.5-4.7-7.8-4.6-8-4.6s-.4.1-.5.2c-1.2-.1-4.1-.6-5.7-3.6-2-3.7.4-7.7.5-7.7.1-.2 2.8-4.9.5-9.7-2.5-4.7-7.8-4.6-8-4.6-.6 0-1 .5-1 1 0 .6.5 1 1 1 0 0 4.3 0 6.2 3.5 1.8 3.7-.4 7.7-.4 7.7-.1.2-3.1 4.9-.5 9.7 2.4 4.4 7 4.6 7.9 4.6h.2c.2 0 .3-.1.5-.2 1.2.1 4.2.7 5.7 3.5 1.8 3.7-.4 7.7-.4 7.7-.1.2-3.1 4.9-.5 9.7 2.4 4.5 7.3 4.6 8 4.6h.1c.2 0 .5-.1.6-.3 1.3.1 4.1.7 5.6 3.5.2.3.5.5.9.5.2 0 .3 0 .5-.1.5-.3.7-.9.4-1.3-2.9-4.6-8.2-4.5-8.4-4.5z" opacity=".25"/><path d="m1720 332.6c-4.1 0-7.5 3.6-7.5 8s3.4 8 7.5 8 7.5-3.6 7.5-8-3.4-8-7.5-8zm0 14c-3 0-5.5-2.7-5.5-6s2.5-6 5.5-6 5.5 2.7 5.5 6-2.5 6-5.5 6z" opacity=".25"/><path d="m1508.1 230.9 3.8-4.4c.4-.4.3-1-.1-1.4s-1-.3-1.4.1l-3.7 4.2-3.8-4c-.4-.4-1-.4-1.4 0s-.4 1 0 1.4l4 4.2-3.9 4.5c-.4.4-.3 1 .1 1.4.2.2.4.2.7.2s.6-.1.8-.3l3.8-4.3 3.8 4.1c.2.2.5.3.7.3s.5-.1.7-.3c.4-.4.4-1 0-1.4z" opacity=".25"/><path d="m1576.7 70.2c-.4-.2-.8-.1-1.2.1-.9.7-17.3 14.5-18 15.1-.3.3-.4.7-.3 1 .1.4.4.7.8.7l16 2.2h.1c.5 0 .9-.4 1-.8 2.8-17.6 2.4-17.9 1.6-18.3zm-3.3 17.1-12.8-1.8c4.8-4 11.6-9.8 14.7-12.3-.3 3-1.2 9.2-1.9 14.1z" opacity=".25"/><path d="m1068.7 216.5c-4.4 0-8 3.4-8 7.5s3.6 7.5 8 7.5 8-3.4 8-7.5-3.6-7.5-8-7.5zm0 13c-3.3 0-6-2.5-6-5.5s2.7-5.5 6-5.5 6 2.5 6 5.5-2.7 5.5-6 5.5z" opacity=".25"/><path d="m833.7 572.4c-5 1.7-5.7 7-5.8 7.2v.1s-.6 4.3-4.4 5.6c-3.9 1.3-7.5-1.7-7.5-1.7-.2-.1-4.4-3.6-9.5-2.1-5 1.7-5.7 7-5.8 7.2 0 .2 0 .4.1.6-.3 1.1-1.2 4.1-4.3 5.1-3.9 1.3-7.5-1.7-7.5-1.7-.2-.1-4.4-3.6-9.5-2.1-5.2 1.7-5.8 7-5.8 7.2-.1.5.3 1 .9 1.1h.1c.5 0 .9-.4 1-.9 0 0 .5-4.3 4.4-5.5 4-1.2 7.5 1.7 7.6 1.7.2.2 4.5 3.8 9.5 2.1s5.7-7 5.8-7.2c0-.2 0-.4-.1-.6.3-1.1 1.2-4.1 4.3-5.1 4-1.2 7.5 1.7 7.6 1.7.2.2 4.5 3.8 9.5 2.1s5.7-7 5.8-7.2v-.1s.6-4.3 4.4-5.6c.5-.2.8-.7.6-1.3-.3-.5-.9-.8-1.4-.6z" opacity=".25"/><path d="m1313.4 215.8c-.6-.6-14.1-16.7-15-17.8-.1-.2-.3-.4-.6-.4-.5-.1-1 .1-1.2.6 0 .1-.1.2-.1.3l-2.2 15.9c-.1.5.3 1 .8 1.1 10.3 1.6 14.7 2.1 16.7 2.1 1.4 0 1.5-.3 1.7-.6.3-.3.2-.8-.1-1.2zm-16.9-2.1 1.8-12.8c1.1 1.4 2.9 3.5 5.8 7 .9 1.1 4.4 5.3 6.5 7.7-3.1-.3-9.3-1.2-14.1-1.9z" opacity=".25"/><path d="m89.9 23.5c-4.4 0-8 3.4-8 7.5s3.6 7.5 8 7.5 8-3.4 8-7.5-3.6-7.5-8-7.5zm0 13c-3.3 0-6-2.5-6-5.5s2.7-5.5 6-5.5 6 2.5 6 5.5-2.7 5.5-6 5.5z" opacity=".25"/><path d="m1903 1068.6-4.2-3.8 4.1-3.9c.4-.4.4-1 0-1.4s-1-.4-1.4 0l-4.3 4-4.3-3.9c-.4-.4-1-.3-1.4.1s-.3 1 .1 1.4l4.2 3.8-4.1 3.9c-.4.4-.4 1 0 1.4.2.2.5.3.7.3s.5-.1.7-.3l4.2-4 4.3 3.9c.2.2.4.3.7.3s.5-.1.7-.3c.4-.5.4-1.2 0-1.5z" opacity=".25"/><path d="m254.6 213.8c-.8-.9-14.2-16.8-15-17.9-.1-.2-.3-.4-.6-.4-.5-.1-1 .1-1.2.6-.1.2-.1.3-.1.5l-2.2 15.8c-.1.5.3 1 .8 1.1 10.3 1.6 14.7 2.1 16.7 2.1 1.4 0 1.5-.3 1.7-.6.3-.3.2-.8-.1-1.2zm-16.9-2.1 1.8-12.7c.2.3.5.6.8.9 1.4 1.6 3.2 3.8 5 6 2.3 2.7 4.9 5.9 6.5 7.7-3.1-.3-9.3-1.2-14.1-1.9z" opacity=".25"/><path d="m1644.7 858.2c-5 1.7-5.7 7-5.8 7.2v.4c-.2 1.1-1.2 4.1-4.4 5.2-3.9 1.3-7.5-1.7-7.5-1.7-.2-.1-4.4-3.6-9.5-2.1-5 1.7-5.7 7-5.8 7.2 0 .2 0 .4.1.6-.2 1.1-1.2 4.1-4.4 5.2-3.9 1.3-7.5-1.7-7.5-1.7-.2-.1-4.4-3.6-9.5-2.1-5 1.7-5.7 7-5.8 7.2-.1.5.3 1 .9 1.1h.1c.5 0 .9-.4 1-.9 0 0 .6-4.3 4.4-5.6 4-1.2 7.5 1.7 7.6 1.7.2.2 4.5 3.7 9.5 2.1 5-1.7 5.7-7 5.8-7.2 0-.2 0-.4-.1-.6.2-1.1 1.2-4.1 4.3-5.2 4-1.2 7.5 1.7 7.6 1.7.2.2 4.5 3.7 9.5 2.1 5-1.7 5.7-7 5.8-7.2 0-.1 0-.3 0-.4.2-1.1 1.2-4.1 4.4-5.2.5-.2.8-.7.6-1.3-.2-.4-.8-.7-1.3-.5z" opacity=".25"/><path d="m680.6 96.4 4.1-3.9c.4-.4.4-1 0-1.4s-1-.4-1.4 0l-4.2 4-4.3-3.8c-.4-.4-1-.3-1.4.1s-.3 1 .1 1.4l4.2 3.7-4.1 3.9c-.4.4-.4 1 0 1.4.2.2.5.3.7.3s.5-.1.7-.3l4.3-4 4.4 3.9c.2.2.4.2.7.2s.6-.1.8-.3c.4-.4.3-1-.1-1.4z" opacity=".25"/><path d="m847.7 393.3c-.8-.9-14.9-17.8-15.1-18-.3-.3-.7-.4-1-.3-.4.1-.7.4-.7.8l-2.2 16c-.1.5.3 1 .8 1.1 10.3 1.6 14.7 2.1 16.7 2.1 1.4 0 1.5-.3 1.7-.6.2-.2.1-.7-.2-1.1zm-16.9-2.1 1.8-12.8c2.9 3.5 9.4 11.3 12.3 14.7-3.1-.3-9.3-1.2-14.1-1.9z" opacity=".25"/><path d="m473.9 75.4c-.1 0-.3 0-.4.1-1.1-.1-4.2-.5-5.8-3.6-2-3.7.4-7.7.5-7.7.1-.2 2.8-4.9.5-9.7-2.5-4.7-7.8-4.6-8-4.6-.3 0-.5.1-.7.3-1.3-.2-4-.8-5.5-3.5-2-3.7.4-7.7.5-7.7.1-.2 2.8-4.9.5-9.7-2.5-4.7-7.8-4.6-8-4.6-.6 0-1 .5-1 1 0 .6.5 1 1 1 0 0 4.3 0 6.2 3.5 1.8 3.7-.4 7.7-.4 7.7-.1.2-3.1 4.9-.5 9.7 2.4 4.5 7.3 4.6 7.9 4.6h.1c.3 0 .5-.1.7-.3 1.3.2 4 .8 5.5 3.5 1.8 3.7-.4 7.7-.4 7.7-.1.2-3.1 4.9-.5 9.7 2.4 4.5 7.3 4.6 7.9 4.6h.1s.3 0 .4-.1c1.1.1 4.2.6 5.8 3.6.2.3.5.5.9.5.2 0 .3 0 .5-.1.5-.3.7-.9.4-1.3-2.7-4.7-8-4.6-8.2-4.6z" opacity=".25"/><path d="m932.7 1013.4 4.1-3.9c.4-.4.4-1 0-1.4s-1-.4-1.4 0l-4.2 4-4.3-3.8c-.4-.4-1-.3-1.4.1s-.3 1 .1 1.4l4.2 3.7-4.1 3.9c-.4.4-.4 1 0 1.4.2.2.5.3.7.3s.5-.1.7-.3l4.2-4 4.3 3.8c.2.2.4.3.7.3s.5-.1.7-.3c.4-.4.3-1-.1-1.4z" opacity=".25"/><path d="m1865.7 14.1c-.5-.2-1.1.1-1.3.6l-4.7 12.2c-.2.5.1 1.1.6 1.3.1 0 .2.1.4.1.4 0 .8-.2.9-.6l4.7-12.2c.1-.7-.1-1.2-.6-1.4z" opacity=".25"/></g></svg>