<?xml version="1.0" encoding="utf-8"?>
<!-- Generator: Adobe Illustrator 23.0.2, SVG Export Plug-In . SVG Version: 6.00 Build 0)  -->
<svg version="1.1" id="Layer_1" xmlns="http://www.w3.org/2000/svg" xmlns:xlink="http://www.w3.org/1999/xlink" x="0px" y="0px"
	 viewBox="0 0 1920 1080" style="enable-background:new 0 0 1920 1080;" xml:space="preserve">
<style type="text/css">
	.st0{fill:#F1BE48;}
	.st1{fill:#7E909E;}
	.st2{fill:#DE7093;}
	.st3{fill:#2DCCD3;}
</style>
<path class="st0" d="M210.9,913.1c-16.5,0-29.9-12.4-29.9-27.7s13.4-27.7,29.9-27.7s30,12.4,30,27.7
	C240.8,900.6,227.4,913.1,210.9,913.1z M210.9,864c-13,0-23.5,9.6-23.5,21.3s10.6,21.3,23.5,21.3c13,0,23.5-9.6,23.5-21.3
	S223.9,864,210.9,864z"/>
<path class="st1" d="M86.4,519c-0.6,0.5-1.5,0.7-2.3,0.4C40.1,504,40,502.2,40,500.3c0-1,0.7-2.1,1.6-2.4
	c3.1-1.2,63.1-26.2,63.7-26.4c0.9-0.4,2-0.2,2.6,0.6c0.7,0.7,0.8,1.8,0.4,2.7L87,518.4C86.9,518.5,86.7,518.8,86.4,519z M47.6,500.5
	c6.7,3,21.7,8.7,36.2,13.7l17.7-36.1C88.7,483.4,58.7,495.9,47.6,500.5z"/>
<path class="st2" d="M1467.3,972.7l16.6-14.6c1.3-1.1,1.5-3.2,0.3-4.5c-1.1-1.3-3.2-1.5-4.5-0.3l-17,15l-16.4-15.6
	c-1.2-1.2-3.3-1.2-4.5,0.1c-1.2,1.2-1.2,3.3,0.1,4.5l16,15.2l-16.7,14.8c-1.3,1.1-1.5,3.2-0.3,4.5c0.6,0.7,1.5,1.1,2.4,1.1
	c0.8,0,1.6-0.3,2.1-0.8l17.2-15.1l16.4,15.6c0.6,0.6,1.4,0.9,2.2,0.9s1.6-0.3,2.3-1c1.2-1.2,1.2-3.3-0.1-4.5L1467.3,972.7z"/>
<path class="st3" d="M1879.6,404c-0.8-1.6-2.7-2.2-4.3-1.4c-14,7.3-29.6-1.9-29.7-2l0,0c-0.7-0.4-18.7-11.2-36-2.2
	c-17.5,9.2-16.6,29.3-16.5,30.1c0,0.2,0.8,16.7-13.1,24c-12.5,6.5-26.3-0.1-29.2-1.7c-0.2-0.2-0.3-0.3-0.5-0.4
	c-0.7-0.4-18.7-11.3-36-2.2c-17.5,9.2-16.6,29.3-16.5,30.1c0,0.2,0.8,16.7-13.1,24c-14,7.3-29.6-1.9-29.7-2
	c-1.5-0.9-3.5-0.4-4.4,1.1s-0.4,3.5,1.1,4.4c0.5,0.3,9.7,5.8,21.1,5.8c4.8,0,9.9-1,14.9-3.7c17.5-9.1,16.6-29.2,16.5-30
	c0-0.7-0.7-16.8,13.1-24c12.6-6.6,26.4,0.2,29.2,1.7c0.2,0.1,0.3,0.3,0.5,0.4c0.5,0.3,9.7,5.8,21.1,5.8c4.7,0,9.9-1,15-3.6
	c17.5-9.2,16.6-29.3,16.5-30.1c-0.1-0.2-0.9-16.7,13-24c14-7.3,29.5,1.9,29.7,2l0,0c0.5,0.3,9.7,5.8,21.1,5.8
	c4.7,0,9.9-0.9,14.8-3.6C1879.8,407.5,1880.4,405.6,1879.6,404z"/>
<path class="st1" d="M589.6,233c-12-7.8-12.9-23.2-13-26.3c0.1-0.2,0.1-0.4,0.1-0.6c0-0.9,0.5-21.8-15.9-32.4
	c-16.7-10.6-33.6,0.1-34.3,0.6c-0.1,0.1-14.1,9-27.3,0.5c-13.3-8.5-13-26.6-13-26.8c0-0.9,0.5-21.8-15.9-32.4
	c-16.7-10.6-33.6,0.1-34.3,0.6c-0.1,0.1-14.1,9-27.3,0.5c-13.3-8.6-13-26.6-13-26.8c0.1-1.8-1.3-3.2-3.1-3.3
	c-1.8-0.1-3.2,1.3-3.3,3.1c0,0.6-0.3,11.3,5.4,21.2c2.4,4.1,5.7,8.1,10.5,11.2c16.7,10.6,33.6-0.1,34.3-0.6
	c0.6-0.3,14.2-8.9,27.3-0.5c13.3,8.5,13,26.5,13,26.8l0,0c0,0.6-0.3,11.3,5.4,21.2c2.3,4.1,5.7,8.1,10.5,11.2
	c16.7,10.6,33.6-0.1,34.3-0.6c0.1-0.1,14.1-9,27.3-0.5c12,7.7,12.9,23.2,13,26.3c-0.1,0.2-0.1,0.4-0.1,0.6c0,0.6-0.3,11.3,5.4,21.2
	c2.4,4.1,5.7,8.1,10.6,11.2c1.5,0.9,3.4,0.5,4.4-1C591.5,236,591.1,234,589.6,233z"/>
</svg>
