<?xml version="1.0" encoding="utf-8"?>
<!-- Generator: Adobe Illustrator 23.0.2, SVG Export Plug-In . SVG Version: 6.00 Build 0)  -->
<svg version="1.1" id="Layer_1" xmlns="http://www.w3.org/2000/svg" xmlns:xlink="http://www.w3.org/1999/xlink" x="0px" y="0px"
	 viewBox="0 0 1920 1080" style="enable-background:new 0 0 1920 1080;" xml:space="preserve">
<style type="text/css">
	.st0{opacity:0.75;fill:#7E909E;enable-background:new    ;}
	.st1{opacity:0.75;fill:#DE7093;enable-background:new    ;}
	.st2{opacity:0.75;fill:#2DCCD3;enable-background:new    ;}
</style>
<path class="st0" d="M1380,391.8c-4.9,0-8.8,3.7-8.8,8.2s3.9,8.2,8.8,8.2s8.8-3.7,8.8-8.2S1384.9,391.8,1380,391.8z M1380,406.2
	c-3.7,0-6.8-2.8-6.8-6.2s3.1-6.2,6.8-6.2s6.8,2.8,6.8,6.2S1383.7,406.2,1380,406.2z"/>
<path class="st1" d="M1359.7,586.8l4.6-4.4c0.4-0.4,0.4-1,0-1.4s-1-0.4-1.4,0l-4.7,4.5l-4.9-4.3c-0.4-0.4-1-0.3-1.4,0.1
	c-0.4,0.4-0.3,1,0.1,1.4l4.8,4.2l-4.6,4.4c-0.4,0.4-0.4,1,0,1.4c0.2,0.2,0.5,0.3,0.7,0.3s0.5-0.1,0.7-0.3l4.7-4.5l4.9,4.3
	c0.2,0.2,0.4,0.3,0.7,0.3c0.3,0,0.6-0.1,0.7-0.3c0.4-0.4,0.3-1-0.1-1.4L1359.7,586.8z"/>
<path class="st0" d="M1240,560.8c-19.6-3-19.8-2.5-20.2-1.8c-0.2,0.4-0.1,0.9,0.1,1.2c0.8,1,16.2,19.2,16.8,20
	c0.2,0.2,0.5,0.4,0.8,0.4c0.1,0,0.2,0,0.3,0c0.4-0.1,0.7-0.4,0.7-0.8l2.4-17.8C1240.9,561.4,1240.5,560.9,1240,560.8z M1236.7,577.2
	c-3.2-3.8-11-13-14.1-16.7c3.1,0.3,9.8,1.2,16,2.1L1236.7,577.2z"/>
<path class="st0" d="M1531.3,387.1c0.5-0.1,0.9-0.7,0.8-1.2l-3.2-14.1c-0.1-0.5-0.7-0.9-1.2-0.8c-0.1,0-0.2,0.1-0.3,0.1
	c-0.3,0.2-0.5,0.6-0.4,1.1l3.2,14.1C1530.2,386.9,1530.8,387.2,1531.3,387.1z"/>
<path class="st0" d="M1642.3,239.2c-4.5,0-8.2,3.9-8.2,8.8s3.7,8.8,8.2,8.8s8.2-3.9,8.2-8.8S1646.8,239.2,1642.3,239.2z
	 M1642.3,254.8c-3.4,0-6.2-3.1-6.2-6.8s2.8-6.8,6.2-6.8s6.2,3.1,6.2,6.8S1645.7,254.8,1642.3,254.8z"/>
<path class="st2" d="M1833.6,275.9c0.2,0.2,0.5,0.3,0.7,0.3s0.5-0.1,0.7-0.3c0.4-0.4,0.4-1,0-1.4l-4.5-4.8l4.4-5
	c0.4-0.4,0.3-1-0.1-1.4s-1-0.3-1.4,0.1l-4.3,4.9l-4.4-4.7c-0.4-0.4-1-0.4-1.4,0s-0.4,1,0,1.4l4.5,4.8l-4.4,4.9
	c-0.4,0.4-0.3,1,0.1,1.4c0.2,0.2,0.4,0.3,0.7,0.3c0.3,0,0.6-0.1,0.7-0.3l4.3-4.8L1833.6,275.9z"/>
<path class="st0" d="M1822.1,389.6l-17.8-2.4c-0.6-0.1-1,0.3-1.1,0.8c-3,19.6-2.5,19.8-1.8,20.2c0.1,0.1,0.3,0.1,0.5,0.1
	c0.3,0,0.5-0.1,0.7-0.3c0.9-0.8,19.8-16.6,20-16.8c0.3-0.3,0.4-0.7,0.3-1C1822.9,389.9,1822.5,389.7,1822.1,389.6z M1802.9,405.3
	c0.3-3.2,1.2-9.8,2.1-16l14.6,2C1815.8,394.5,1806.6,402.2,1802.9,405.3z"/>
<path class="st0" d="M1628.6,100.1l-13.5-5.1c-0.5-0.2-1.1,0.1-1.3,0.6c-0.2,0.5,0.1,1.1,0.6,1.3l13.5,5.1c0.1,0,0.2,0.1,0.4,0.1
	c0.4,0,0.8-0.2,0.9-0.6C1629.3,100.8,1629.1,100.3,1628.6,100.1z"/>
<path class="st0" d="M1892,133.6c-1.9-5.5-7.7-6.3-7.9-6.4c-0.1,0-0.3,0-0.4,0c-1.2-0.3-4.7-1.3-5.9-5c-1.5-4.4,1.9-8.4,1.9-8.4
	c0.2-0.2,4-4.8,2.3-10.4c-1.8-5.7-7.7-6.4-7.9-6.4c-0.2,0-0.3,0-0.4,0.1c-1-0.2-4.7-1.2-6-5c-1.5-4.4,1.8-8.3,1.8-8.3
	c0.2-0.2,4-4.8,2.3-10.4c-1.8-5.7-7.7-6.4-7.9-6.4c-0.6-0.1-1,0.3-1.1,0.9c-0.1,0.5,0.3,1,0.9,1.1c0.2,0,4.9,0.6,6.3,5
	c1.4,4.5-1.9,8.4-1.9,8.4c-0.2,0.2-4.1,4.8-2.2,10.3s7.7,6.3,7.9,6.4h0.1c0.1,0,0.2,0,0.4-0.1c1,0.2,4.8,1.1,6,5
	c1.4,4.5-1.9,8.4-1.9,8.4c-0.2,0.2-4.2,4.9-2.3,10.4c1.9,5.5,7.7,6.3,7.9,6.4h0.1c0.1,0,0.1,0,0.2,0c1.1,0.2,4.7,1.3,5.9,5
	c0.1,0.4,0.5,0.7,0.9,0.7c0.1,0,0.2,0,0.3-0.1C1891.9,134.7,1892.2,134.1,1892,133.6z"/>
<path class="st0" d="M478.3,119c-4.9,0-8.8,3.7-8.8,8.2s3.9,8.2,8.8,8.2s8.8-3.7,8.8-8.2S483.2,119,478.3,119z M478.3,133.4
	c-3.7,0-6.8-2.8-6.8-6.2c0-3.4,3.1-6.2,6.8-6.2s6.8,2.8,6.8,6.2C485.1,130.6,482,133.4,478.3,133.4z"/>
<path class="st0" d="M458,314l4.6-4.4c0.4-0.4,0.4-1,0-1.4s-1-0.4-1.4,0l-4.7,4.5l-4.9-4.3c-0.4-0.4-1-0.3-1.4,0.1s-0.3,1,0.1,1.4
	l4.8,4.2l-4.6,4.4c-0.4,0.4-0.4,1,0,1.4c0.2,0.2,0.5,0.3,0.7,0.3s0.5-0.1,0.7-0.3l4.8-4.5l5,4.4c0.2,0.2,0.4,0.2,0.7,0.2
	c0.3,0,0.6-0.1,0.8-0.3c0.4-0.4,0.3-1-0.1-1.4L458,314z"/>
<path class="st1" d="M318.2,287.6c0.9,1,16.6,19.8,16.8,20c0.2,0.2,0.5,0.4,0.8,0.4c0.1,0,0.2,0,0.3,0c0.4-0.1,0.7-0.4,0.7-0.8
	l2.4-17.8c0.1-0.5-0.3-1-0.8-1.1c-19.6-3-19.8-2.5-20.2-1.8C317.8,286.7,317.9,287.2,318.2,287.6L318.2,287.6z M337,289.9l-2,14.6
	c-3.2-3.9-10.9-13-14-16.7C324.2,288.1,330.8,289,337,289.9z"/>
<path class="st0" d="M624.8,114c0.1,0,0.2,0.1,0.4,0.1c0.4,0,0.8-0.2,0.9-0.6l5.2-13.5c0.2-0.5-0.1-1.1-0.6-1.3
	c-0.5-0.2-1.1,0.1-1.3,0.6l-5.2,13.5C624.1,113.3,624.3,113.8,624.8,114z"/>
<path class="st0" d="M115.5,752.8c-4.5,0-8.2,3.9-8.2,8.8s3.7,8.8,8.2,8.8s8.2-3.9,8.2-8.8S120,752.8,115.5,752.8z M115.5,768.4
	c-3.4,0-6.2-3.1-6.2-6.8s2.8-6.8,6.2-6.8s6.2,3.1,6.2,6.8C121.7,765.3,118.9,768.4,115.5,768.4z"/>
<path class="st0" d="M303.7,783.3l4.4-5c0.4-0.4,0.3-1-0.1-1.4s-1-0.3-1.4,0.1l-4.3,4.9l-4.4-4.6c-0.4-0.4-1-0.4-1.4,0s-0.4,1,0,1.4
	l4.5,4.7l-4.3,4.9c-0.4,0.4-0.3,1,0.1,1.4c0.2,0.2,0.4,0.2,0.7,0.2c0.3,0,0.6-0.1,0.8-0.3l4.2-4.8l4.4,4.6c0.2,0.2,0.5,0.3,0.7,0.3
	s0.5-0.1,0.7-0.3c0.4-0.4,0.4-1,0-1.4L303.7,783.3z"/>
<path class="st2" d="M295.3,903.2l-17.8-2.4c-0.5-0.1-1,0.3-1.1,0.8c-3,19.6-2.5,19.8-1.8,20.2c0.1,0.1,0.3,0.1,0.5,0.1
	s0.5-0.1,0.7-0.2c1-0.8,19.2-16.2,20-16.8c0.3-0.3,0.4-0.7,0.3-1C296,903.5,295.7,903.3,295.3,903.2z M276.1,918.9
	c0.3-3.1,1.2-9.8,2.1-16l14.6,2C289,908.1,279.8,915.9,276.1,918.9z"/>
<path class="st0" d="M101.8,613.8l-13.5-5.2c-0.5-0.2-1.1,0.1-1.3,0.6s0.1,1.1,0.6,1.3l13.5,5.2c0.1,0,0.2,0.1,0.4,0.1
	c0.4,0,0.8-0.2,0.9-0.6C102.5,614.5,102.3,614,101.8,613.8z"/>
<path class="st1" d="M839.1,882.9c-4.9,0-8.8,3.7-8.8,8.2s3.9,8.2,8.8,8.2c4.9,0,8.8-3.7,8.8-8.2S844,882.9,839.1,882.9z
	 M839.1,897.3c-3.7,0-6.8-2.8-6.8-6.2s3.1-6.2,6.8-6.2s6.8,2.8,6.8,6.2C845.9,894.5,842.8,897.3,839.1,897.3z"/>
<path class="st0" d="M698.9,977.6l4.6-4.4c0.4-0.4,0.4-1,0-1.4s-1-0.4-1.4,0l-4.7,4.5l-4.9-4.3c-0.4-0.4-1-0.3-1.4,0.1
	c-0.4,0.4-0.3,1,0.1,1.4l4.8,4.2l-4.6,4.4c-0.4,0.4-0.4,1,0,1.4c0.2,0.2,0.5,0.3,0.7,0.3s0.5-0.1,0.7-0.3l4.7-4.5l4.9,4.3
	c0.2,0.2,0.4,0.3,0.7,0.3s0.6-0.1,0.8-0.3c0.4-0.4,0.3-1-0.1-1.4L698.9,977.6z"/>
<path class="st0" d="M579.2,951.7c-19.6-3-19.8-2.5-20.2-1.8c-0.2,0.4-0.1,0.9,0.1,1.2c0.8,1,16.2,19.2,16.8,20
	c0.2,0.2,0.5,0.4,0.8,0.4c0.1,0,0.2,0,0.3,0c0.4-0.1,0.7-0.4,0.7-0.8l2.4-17.8C580.1,952.3,579.7,951.8,579.2,951.7z M575.9,968.1
	c-3.2-3.8-11-13-14.1-16.7c3.1,0.3,9.8,1.2,16,2.1L575.9,968.1z"/>
<path class="st0" d="M871.7,762.3c-0.5-0.2-1.1,0.1-1.3,0.6l-5.2,13.5c-0.2,0.5,0.1,1.1,0.6,1.3c0.1,0,0.2,0.1,0.4,0.1
	c0.4,0,0.8-0.2,0.9-0.6l5.2-13.5C872.4,763,872.2,762.5,871.7,762.3z"/>
<path class="st0" d="M632.9,542.7c-4.9,0-8.8,3.7-8.8,8.2s3.9,8.2,8.8,8.2c4.9,0,8.8-3.7,8.8-8.2S637.8,542.7,632.9,542.7z
	 M632.9,557.1c-3.7,0-6.8-2.8-6.8-6.2s3.1-6.2,6.8-6.2s6.8,2.8,6.8,6.2S636.6,557.1,632.9,557.1z"/>
<path class="st0" d="M612.7,737.7l4.6-4.4c0.4-0.4,0.4-1,0-1.4s-1-0.4-1.4,0l-4.7,4.5l-4.9-4.3c-0.4-0.4-1-0.3-1.4,0.1
	c-0.4,0.4-0.3,1,0.1,1.4l4.8,4.2l-4.6,4.4c-0.4,0.4-0.4,1,0,1.4c0.2,0.2,0.5,0.3,0.7,0.3s0.5-0.1,0.7-0.3l4.7-4.5l4.9,4.3
	c0.2,0.2,0.4,0.3,0.7,0.3s0.6-0.1,0.7-0.3c0.4-0.4,0.3-1-0.1-1.4L612.7,737.7z"/>
<path class="st0" d="M1667.3,1021.9c0.5,0.2,1.1,0,1.3-0.5l5.9-13.2c0.2-0.5,0-1.1-0.5-1.3c-0.1-0.1-0.2-0.1-0.4-0.1
	c-0.4,0-0.8,0.2-1,0.6l-5.9,13.2C1666.6,1021.1,1666.8,1021.7,1667.3,1021.9z"/>
<path class="st0" d="M1834.5,852.9c-4.9,0-8.8,3.7-8.8,8.2s3.9,8.2,8.8,8.2s8.8-3.7,8.8-8.2S1839.4,852.9,1834.5,852.9z
	 M1834.5,867.3c-3.7,0-6.8-2.8-6.8-6.2s3.1-6.2,6.8-6.2s6.8,2.8,6.8,6.2S1838.2,867.3,1834.5,867.3z"/>
<path class="st2" d="M67.8,107c0.2,0.2,0.4,0.3,0.7,0.3c0.3,0,0.5-0.1,0.7-0.3c0.4-0.4,0.3-1-0.1-1.4l-4.8-4.3l4.6-4.4
	c0.4-0.4,0.4-1,0-1.4s-1-0.4-1.4,0l-4.7,4.5L58,95.6c-0.4-0.4-1-0.3-1.4,0.1s-0.3,1,0.1,1.4l4.8,4.3l-4.6,4.4c-0.4,0.4-0.4,1,0,1.4
	c0.2,0.2,0.5,0.3,0.7,0.3s0.5-0.1,0.7-0.3l4.8-4.5L67.8,107z"/>
<path class="st0" d="M1763.9,902.9c-19.6-3-19.8-2.5-20.2-1.8c-0.2,0.4-0.1,0.9,0.1,1.2c0.8,1,16.2,19.2,16.8,20
	c0.2,0.2,0.5,0.4,0.8,0.4c0.1,0,0.2,0,0.3,0c0.4-0.1,0.7-0.4,0.7-0.8l2.4-17.8C1764.8,903.5,1764.4,903,1763.9,902.9z M1760.6,919.3
	c-3.2-3.8-11-13-14.1-16.7c3.1,0.3,9.8,1.2,16,2.1L1760.6,919.3z"/>
<path class="st0" d="M1756.1,656.7c0.1,0,0.2,0.1,0.4,0.1c0.4,0,0.8-0.2,0.9-0.6l5.2-13.5c0.2-0.5-0.1-1.1-0.6-1.3s-1.1,0.1-1.3,0.6
	l-5.2,13.5C1755.4,656,1755.6,656.5,1756.1,656.7z"/>
<path class="st0" d="M1514.9,875.4c-4.9,0-8.8,3.7-8.8,8.2s3.9,8.2,8.8,8.2s8.8-3.7,8.8-8.2S1519.8,875.4,1514.9,875.4z
	 M1514.9,889.8c-3.8,0-6.8-2.8-6.8-6.2s3.1-6.2,6.8-6.2c3.7,0,6.8,2.8,6.8,6.2C1521.7,887,1518.6,889.8,1514.9,889.8z"/>
<path class="st0" d="M1273.5,943.9l4.6-4.4c0.4-0.4,0.4-1,0-1.4s-1-0.4-1.4,0l-4.8,4.5l-5-4.4c-0.4-0.4-1-0.3-1.4,0.1
	c-0.4,0.4-0.3,1,0.1,1.4l4.9,4.3l-4.6,4.4c-0.4,0.4-0.4,1,0,1.4c0.2,0.2,0.5,0.3,0.7,0.3s0.5-0.1,0.7-0.3l4.7-4.5l4.9,4.3
	c0.2,0.2,0.4,0.2,0.7,0.2c0.3,0,0.6-0.1,0.8-0.3c0.4-0.4,0.3-1-0.1-1.4L1273.5,943.9z"/>
<path class="st0" d="M1153.7,917.9c-19.6-3-19.8-2.5-20.2-1.8c-0.2,0.4-0.1,0.9,0.1,1.2l0,0c0.9,1,16.6,19.8,16.8,20
	c0.2,0.2,0.5,0.4,0.8,0.4c0.1,0,0.2,0,0.3,0c0.4-0.1,0.7-0.4,0.7-0.8l2.4-17.8C1154.6,918.5,1154.2,918,1153.7,917.9z M1150.4,934.3
	c-3.2-3.9-10.9-13-14-16.7c3.2,0.3,9.8,1.2,16,2.1L1150.4,934.3z"/>
<path class="st0" d="M1440.3,743.8c0.1,0,0.2,0.1,0.4,0.1c0.4,0,0.8-0.2,0.9-0.6l5.2-13.5c0.2-0.5-0.1-1.1-0.6-1.3s-1.1,0.1-1.3,0.6
	l-5.2,13.5C1439.6,743.1,1439.8,743.6,1440.3,743.8z"/>
<path class="st0" d="M1473.8,977.5c-0.5-0.1-1,0.3-1.1,0.9c0,0.2-0.7,4.8-5,6.3c-4.5,1.4-8.4-1.9-8.4-1.9c-0.2-0.2-4.9-4.2-10.4-2.3
	s-6.3,7.7-6.4,7.9c0,0.2,0,0.4,0.1,0.6c-0.3,1.2-1.3,4.7-4.9,5.9c-4.5,1.4-8.4-1.9-8.4-1.9c-0.2-0.2-4.9-4.2-10.4-2.3
	s-6.3,7.7-6.4,7.9c0,0-0.7,4.8-5,6.3c-0.5,0.2-0.8,0.7-0.6,1.3c0.1,0.4,0.5,0.7,0.9,0.7c0.1,0,0.2,0,0.3-0.1
	c5.5-1.9,6.3-7.7,6.4-7.9l0,0c0-0.2,0.7-4.8,5-6.3c4.4-1.5,8.4,1.9,8.4,1.9c0.2,0.2,4.8,4,10.4,2.3c5.5-1.9,6.3-7.7,6.4-7.9
	c0-0.2,0-0.4-0.1-0.6c0.3-1.2,1.3-4.6,5-5.9c4.4-1.5,8.4,1.9,8.4,1.9c0.2,0.2,4.8,4,10.4,2.3c5.5-1.9,6.3-7.7,6.4-7.9
	C1474.8,978.1,1474.4,977.6,1473.8,977.5z"/>
<path class="st0" d="M68.5,255.8c-4.9,0-8.8,3.7-8.8,8.2s3.9,8.2,8.8,8.2s8.8-3.7,8.8-8.2S73.4,255.8,68.5,255.8z M68.5,270.2
	c-3.7,0-6.8-2.8-6.8-6.2s3.1-6.2,6.8-6.2s6.8,2.8,6.8,6.2S72.2,270.2,68.5,270.2z"/>
<path class="st0" d="M993.4,153.9l4.6-4.4c0.4-0.4,0.4-1,0-1.4s-1-0.4-1.4,0l-4.7,4.5l-4.9-4.3c-0.4-0.4-1-0.3-1.4,0.1
	c-0.4,0.4-0.3,1,0.1,1.4l4.8,4.2l-4.6,4.4c-0.4,0.4-0.4,1,0,1.4c0.2,0.2,0.5,0.3,0.7,0.3s0.5-0.1,0.7-0.3l4.7-4.5l4.9,4.3
	c0.2,0.2,0.4,0.3,0.7,0.3s0.6-0.1,0.7-0.3c0.4-0.4,0.3-1-0.1-1.4L993.4,153.9z"/>
<path class="st0" d="M1130.3,180.5c-0.9-1-16.6-19.8-16.8-20c-0.3-0.3-0.7-0.4-1-0.3c-0.4,0.1-0.7,0.4-0.7,0.8l-2.4,17.8
	c-0.1,0.5,0.3,1,0.8,1.1c11.5,1.8,16.3,2.3,18.5,2.3c1.5,0,1.6-0.3,1.8-0.6C1130.7,181.4,1130.6,180.9,1130.3,180.5L1130.3,180.5z
	 M1111.5,178.2l2-14.6c3.2,3.9,10.9,13,14,16.7C1124.3,180,1117.7,179.1,1111.5,178.2z"/>
<path class="st0" d="M66.3,908.9c-0.5-0.2-1.1,0.1-1.3,0.6L59.8,923c-0.2,0.5,0.1,1.1,0.6,1.3c0.1,0,0.2,0.1,0.4,0.1
	c0.4,0,0.8-0.2,0.9-0.6l5.2-13.5C67,909.6,66.8,909.1,66.3,908.9z"/>
<path class="st0" d="M360.6,488c-5.5,1.9-6.3,7.7-6.4,7.9c0,0-0.7,4.8-5,6.3c-4.4,1.5-8.4-1.9-8.4-1.9c-0.2-0.2-4.8-4-10.4-2.3
	c-5.5,1.9-6.3,7.7-6.4,7.9c0,0.2,0,0.4,0.1,0.6c-0.3,1.2-1.3,4.6-5,5.9c-4.4,1.5-8.4-1.9-8.4-1.9c-0.2-0.2-4.8-4-10.4-2.3
	c-5.7,1.8-6.4,7.7-6.4,7.9c-0.1,0.5,0.3,1,0.9,1.1h0.1c0.5,0,0.9-0.4,1-0.9c0-0.2,0.6-4.9,5-6.3c4.5-1.4,8.4,1.9,8.4,1.9
	c0.2,0.2,4.9,4.2,10.4,2.3c5.5-1.9,6.3-7.7,6.4-7.9c0-0.2,0-0.4-0.1-0.6c0.3-1.2,1.3-4.7,4.9-5.9c4.5-1.4,8.4,1.9,8.4,1.9
	c0.2,0.2,4.9,4.2,10.4,2.3c5.5-1.9,6.3-7.7,6.4-7.9c0,0,0.7-4.8,5-6.3c0.5-0.2,0.8-0.7,0.6-1.3S361.1,487.8,360.6,488z"/>
</svg>
