<svg enable-background="new 0 0 1920 1080" viewBox="0 0 1920 1080" xmlns="http://www.w3.org/2000/svg"><path d="m1709.1 167c-16.5 0-29.9 12.5-30 27.7 0 15.3 13.5 27.7 30 27.7s29.9-12.4 29.9-27.7-13.4-27.7-29.9-27.7zm0 49.1c-13 0-23.5-9.6-23.5-21.3s10.5-21.3 23.5-21.3c12.9 0 23.5 9.6 23.5 21.3s-10.5 21.3-23.5 21.3z" fill="#84bd00"/><path d="m1842.9 648.2c-.8-.3-1.7-.1-2.3.4-.3.2-.5.5-.6.6l-21.3 43.6c-.4.9-.3 2 .4 2.7.6.8 1.7 1 2.6.6.6-.2 60.6-25.2 63.7-26.4.9-.3 1.6-1.4 1.6-2.4 0-1.9-.1-3.7-44.1-19.1zm-17.4 41.3 17.7-36.1c14.5 5 29.5 10.7 36.2 13.7-11.1 4.6-41.1 17.1-53.9 22.4z" fill="#7e909e"/><path d="m399 88.3c-.6-.7-1.5-1.1-2.4-1.1-.8 0-1.6.3-2.1.8l-17.2 15.1-16.4-15.6c-.6-.6-1.4-.9-2.2-.9s-1.6.3-2.3 1c-1.2 1.2-1.2 3.3.1 4.5l16.1 15.3-16.6 14.6c-1.3 1.1-1.5 3.2-.3 4.5 1.1 1.3 3.2 1.5 4.5.3l17-15 16.4 15.6c1.2 1.2 3.3 1.2 4.5-.1 1.2-1.2 1.2-3.3-.1-4.5l-16-15.2 16.7-14.8c1.3-1.1 1.5-3.2.3-4.5z" fill="#2dccd3"/><path d="m1535.6 1030.8c-16.7-10.6-33.6.1-34.3.6-.6.3-14.2 8.9-27.3.5-13.3-8.5-13-26.5-13-26.8 0-.6.3-11.3-5.4-21.2-2.3-4.1-5.7-8.1-10.5-11.2-16.7-10.6-33.6.1-34.3.6-.1.1-14.1 9-27.3.5-12-7.7-12.9-23.2-13-26.3.1-.2.1-.4.1-.6 0-.6.3-11.3-5.4-21.2-2.4-4.1-5.7-8.1-10.6-11.2-1.5-.9-3.4-.5-4.4 1-.9 1.4-.5 3.4 1 4.4 12 7.8 12.9 23.2 13 26.3-.1.2-.1.4-.1.6 0 .9-.5 21.8 15.9 32.4 16.7 10.6 33.6-.1 34.3-.6.1-.1 14.1-9 27.3-.5 13.3 8.5 13 26.6 13 26.8 0 .9-.5 21.8 15.9 32.4 16.7 10.6 33.6-.1 34.3-.6.1-.1 14.1-9 27.3-.5 13.3 8.6 13 26.6 13 26.8-.1 1.8 1.3 3.2 3.1 3.3s3.2-1.3 3.3-3.1c0-.6.3-11.3-5.4-21.2-2.4-4.1-5.7-8.1-10.5-11.2z" fill="#f1be48"/><path d="m75.2 932.7-41.3-21.4c-1.5-.8-3.3-.2-4 1.3-.8 1.5-.2 3.3 1.3 4l41.3 21.4c.4.2.9.3 1.4.3 1.1 0 2.1-.6 2.7-1.6.6-1.4.1-3.2-1.4-4z" fill="#7e909e"/></svg>