<svg enable-background="new 0 0 1920 1080" viewBox="0 0 1920 1080" xmlns="http://www.w3.org/2000/svg"><path d="m210.9 913.1c-16.5 0-29.9-12.4-29.9-27.7s13.4-27.7 29.9-27.7 30 12.4 30 27.7c-.1 15.2-13.5 27.7-30 27.7zm0-49.1c-13 0-23.5 9.6-23.5 21.3s10.6 21.3 23.5 21.3c13 0 23.5-9.6 23.5-21.3s-10.5-21.3-23.5-21.3z" fill="#f1be48"/><path d="m86.4 519c-.6.5-1.5.7-2.3.4-44-15.4-44.1-17.2-44.1-19.1 0-1 .7-2.1 1.6-2.4 3.1-1.2 63.1-26.2 63.7-26.4.9-.4 2-.2 2.6.6.7.7.8 1.8.4 2.7l-21.3 43.6c-.1.1-.3.4-.6.6zm-38.8-18.5c6.7 3 21.7 8.7 36.2 13.7l17.7-36.1c-12.8 5.3-42.8 17.8-53.9 22.4z" fill="#7e909e"/><path d="m1467.3 972.7 16.6-14.6c1.3-1.1 1.5-3.2.3-4.5-1.1-1.3-3.2-1.5-4.5-.3l-17 15-16.4-15.6c-1.2-1.2-3.3-1.2-4.5.1-1.2 1.2-1.2 3.3.1 4.5l16 15.2-16.7 14.8c-1.3 1.1-1.5 3.2-.3 4.5.6.7 1.5 1.1 2.4 1.1.8 0 1.6-.3 2.1-.8l17.2-15.1 16.4 15.6c.6.6 1.4.9 2.2.9s1.6-.3 2.3-1c1.2-1.2 1.2-3.3-.1-4.5z" fill="#de7093"/><path d="m1879.6 404c-.8-1.6-2.7-2.2-4.3-1.4-14 7.3-29.6-1.9-29.7-2-.7-.4-18.7-11.2-36-2.2-17.5 9.2-16.6 29.3-16.5 30.1 0 .2.8 16.7-13.1 24-12.5 6.5-26.3-.1-29.2-1.7-.2-.2-.3-.3-.5-.4-.7-.4-18.7-11.3-36-2.2-17.5 9.2-16.6 29.3-16.5 30.1 0 .2.8 16.7-13.1 24-14 7.3-29.6-1.9-29.7-2-1.5-.9-3.5-.4-4.4 1.1s-.4 3.5 1.1 4.4c.5.3 9.7 5.8 21.1 5.8 4.8 0 9.9-1 14.9-3.7 17.5-9.1 16.6-29.2 16.5-30 0-.7-.7-16.8 13.1-24 12.6-6.6 26.4.2 29.2 1.7.2.1.3.3.5.4.5.3 9.7 5.8 21.1 5.8 4.7 0 9.9-1 15-3.6 17.5-9.2 16.6-29.3 16.5-30.1-.1-.2-.9-16.7 13-24 14-7.3 29.5 1.9 29.7 2 .5.3 9.7 5.8 21.1 5.8 4.7 0 9.9-.9 14.8-3.6 1.6-.8 2.2-2.7 1.4-4.3z" fill="#2dccd3"/><path d="m589.6 233c-12-7.8-12.9-23.2-13-26.3.1-.2.1-.4.1-.6 0-.9.5-21.8-15.9-32.4-16.7-10.6-33.6.1-34.3.6-.1.1-14.1 9-27.3.5-13.3-8.5-13-26.6-13-26.8 0-.9.5-21.8-15.9-32.4-16.7-10.6-33.6.1-34.3.6-.1.1-14.1 9-27.3.5-13.3-8.6-13-26.6-13-26.8.1-1.8-1.3-3.2-3.1-3.3s-3.2 1.3-3.3 3.1c0 .6-.3 11.3 5.4 21.2 2.4 4.1 5.7 8.1 10.5 11.2 16.7 10.6 33.6-.1 34.3-.6.6-.3 14.2-8.9 27.3-.5 13.3 8.5 13 26.5 13 26.8 0 .6-.3 11.3 5.4 21.2 2.3 4.1 5.7 8.1 10.5 11.2 16.7 10.6 33.6-.1 34.3-.6.1-.1 14.1-9 27.3-.5 12 7.7 12.9 23.2 13 26.3-.1.2-.1.4-.1.6 0 .6-.3 11.3 5.4 21.2 2.4 4.1 5.7 8.1 10.6 11.2 1.5.9 3.4.5 4.4-1 .9-1.4.5-3.4-1-4.4z" fill="#7e909e"/></svg>