<svg enable-background="new 0 0 1920 1080" viewBox="0 0 1920 1080" xmlns="http://www.w3.org/2000/svg"><path d="m1380 391.8c-4.9 0-8.8 3.7-8.8 8.2s3.9 8.2 8.8 8.2 8.8-3.7 8.8-8.2-3.9-8.2-8.8-8.2zm0 14.4c-3.7 0-6.8-2.8-6.8-6.2s3.1-6.2 6.8-6.2 6.8 2.8 6.8 6.2-3.1 6.2-6.8 6.2z" fill="#7e909e" opacity=".75"/><path d="m1359.7 586.8 4.6-4.4c.4-.4.4-1 0-1.4s-1-.4-1.4 0l-4.7 4.5-4.9-4.3c-.4-.4-1-.3-1.4.1s-.3 1 .1 1.4l4.8 4.2-4.6 4.4c-.4.4-.4 1 0 1.4.2.2.5.3.7.3s.5-.1.7-.3l4.7-4.5 4.9 4.3c.2.2.4.3.7.3s.6-.1.7-.3c.4-.4.3-1-.1-1.4z" fill="#de7093" opacity=".75"/><path d="m1240 560.8c-19.6-3-19.8-2.5-20.2-1.8-.2.4-.1.9.1 1.2.8 1 16.2 19.2 16.8 20 .2.2.5.4.8.4h.3c.4-.1.7-.4.7-.8l2.4-17.8c0-.6-.4-1.1-.9-1.2zm-3.3 16.4c-3.2-3.8-11-13-14.1-16.7 3.1.3 9.8 1.2 16 2.1z" fill="#7e909e" opacity=".75"/><path d="m1531.3 387.1c.5-.1.9-.7.8-1.2l-3.2-14.1c-.1-.5-.7-.9-1.2-.8-.1 0-.2.1-.3.1-.3.2-.5.6-.4 1.1l3.2 14.1c0 .6.6.9 1.1.8z" fill="#7e909e" opacity=".75"/><path d="m1642.3 239.2c-4.5 0-8.2 3.9-8.2 8.8s3.7 8.8 8.2 8.8 8.2-3.9 8.2-8.8-3.7-8.8-8.2-8.8zm0 15.6c-3.4 0-6.2-3.1-6.2-6.8s2.8-6.8 6.2-6.8 6.2 3.1 6.2 6.8-2.8 6.8-6.2 6.8z" fill="#7e909e" opacity=".75"/><path d="m1833.6 275.9c.2.2.5.3.7.3s.5-.1.7-.3c.4-.4.4-1 0-1.4l-4.5-4.8 4.4-5c.4-.4.3-1-.1-1.4s-1-.3-1.4.1l-4.3 4.9-4.4-4.7c-.4-.4-1-.4-1.4 0s-.4 1 0 1.4l4.5 4.8-4.4 4.9c-.4.4-.3 1 .1 1.4.2.2.4.3.7.3s.6-.1.7-.3l4.3-4.8z" fill="#2dccd3" opacity=".75"/><path d="m1822.1 389.6-17.8-2.4c-.6-.1-1 .3-1.1.8-3 19.6-2.5 19.8-1.8 20.2.1.1.3.1.5.1.3 0 .5-.1.7-.3.9-.8 19.8-16.6 20-16.8.3-.3.4-.7.3-1 0-.3-.4-.5-.8-.6zm-19.2 15.7c.3-3.2 1.2-9.8 2.1-16l14.6 2c-3.8 3.2-13 10.9-16.7 14z" fill="#7e909e" opacity=".75"/><path d="m1628.6 100.1-13.5-5.1c-.5-.2-1.1.1-1.3.6s.1 1.1.6 1.3l13.5 5.1c.1 0 .2.1.4.1.4 0 .8-.2.9-.6.1-.7-.1-1.2-.6-1.4z" fill="#7e909e" opacity=".75"/><path d="m1892 133.6c-1.9-5.5-7.7-6.3-7.9-6.4-.1 0-.3 0-.4 0-1.2-.3-4.7-1.3-5.9-5-1.5-4.4 1.9-8.4 1.9-8.4.2-.2 4-4.8 2.3-10.4-1.8-5.7-7.7-6.4-7.9-6.4s-.3 0-.4.1c-1-.2-4.7-1.2-6-5-1.5-4.4 1.8-8.3 1.8-8.3.2-.2 4-4.8 2.3-10.4-1.8-5.7-7.7-6.4-7.9-6.4-.6-.1-1 .3-1.1.9-.1.5.3 1 .9 1.1.2 0 4.9.6 6.3 5 1.4 4.5-1.9 8.4-1.9 8.4-.2.2-4.1 4.8-2.2 10.3s7.7 6.3 7.9 6.4h.1c.1 0 .2 0 .4-.1 1 .2 4.8 1.1 6 5 1.4 4.5-1.9 8.4-1.9 8.4-.2.2-4.2 4.9-2.3 10.4s7.7 6.3 7.9 6.4h.1.2c1.1.2 4.7 1.3 5.9 5 .1.4.5.7.9.7.1 0 .2 0 .3-.1.5-.1.8-.7.6-1.2z" fill="#7e909e" opacity=".75"/><path d="m478.3 119c-4.9 0-8.8 3.7-8.8 8.2s3.9 8.2 8.8 8.2 8.8-3.7 8.8-8.2-3.9-8.2-8.8-8.2zm0 14.4c-3.7 0-6.8-2.8-6.8-6.2s3.1-6.2 6.8-6.2 6.8 2.8 6.8 6.2-3.1 6.2-6.8 6.2z" fill="#7e909e" opacity=".75"/><path d="m458 314 4.6-4.4c.4-.4.4-1 0-1.4s-1-.4-1.4 0l-4.7 4.5-4.9-4.3c-.4-.4-1-.3-1.4.1s-.3 1 .1 1.4l4.8 4.2-4.6 4.4c-.4.4-.4 1 0 1.4.2.2.5.3.7.3s.5-.1.7-.3l4.8-4.5 5 4.4c.2.2.4.2.7.2s.6-.1.8-.3c.4-.4.3-1-.1-1.4z" fill="#7e909e" opacity=".75"/><path d="m318.2 287.6c.9 1 16.6 19.8 16.8 20s.5.4.8.4h.3c.4-.1.7-.4.7-.8l2.4-17.8c.1-.5-.3-1-.8-1.1-19.6-3-19.8-2.5-20.2-1.8-.4.2-.3.7 0 1.1zm18.8 2.3-2 14.6c-3.2-3.9-10.9-13-14-16.7 3.2.3 9.8 1.2 16 2.1z" fill="#de7093" opacity=".75"/><path d="m624.8 114c.1 0 .2.1.4.1.4 0 .8-.2.9-.6l5.2-13.5c.2-.5-.1-1.1-.6-1.3s-1.1.1-1.3.6l-5.2 13.5c-.1.5.1 1 .6 1.2z" fill="#7e909e" opacity=".75"/><path d="m115.5 752.8c-4.5 0-8.2 3.9-8.2 8.8s3.7 8.8 8.2 8.8 8.2-3.9 8.2-8.8-3.7-8.8-8.2-8.8zm0 15.6c-3.4 0-6.2-3.1-6.2-6.8s2.8-6.8 6.2-6.8 6.2 3.1 6.2 6.8-2.8 6.8-6.2 6.8z" fill="#7e909e" opacity=".75"/><path d="m303.7 783.3 4.4-5c.4-.4.3-1-.1-1.4s-1-.3-1.4.1l-4.3 4.9-4.4-4.6c-.4-.4-1-.4-1.4 0s-.4 1 0 1.4l4.5 4.7-4.3 4.9c-.4.4-.3 1 .1 1.4.2.2.4.2.7.2s.6-.1.8-.3l4.2-4.8 4.4 4.6c.2.2.5.3.7.3s.5-.1.7-.3c.4-.4.4-1 0-1.4z" fill="#7e909e" opacity=".75"/><path d="m295.3 903.2-17.8-2.4c-.5-.1-1 .3-1.1.8-3 19.6-2.5 19.8-1.8 20.2.1.1.3.1.5.1s.5-.1.7-.2c1-.8 19.2-16.2 20-16.8.3-.3.4-.7.3-1-.1-.4-.4-.6-.8-.7zm-19.2 15.7c.3-3.1 1.2-9.8 2.1-16l14.6 2c-3.8 3.2-13 11-16.7 14z" fill="#2dccd3" opacity=".75"/><path d="m101.8 613.8-13.5-5.2c-.5-.2-1.1.1-1.3.6s.1 1.1.6 1.3l13.5 5.2c.1 0 .2.1.4.1.4 0 .8-.2.9-.6.1-.7-.1-1.2-.6-1.4z" fill="#7e909e" opacity=".75"/><path d="m839.1 882.9c-4.9 0-8.8 3.7-8.8 8.2s3.9 8.2 8.8 8.2 8.8-3.7 8.8-8.2-3.9-8.2-8.8-8.2zm0 14.4c-3.7 0-6.8-2.8-6.8-6.2s3.1-6.2 6.8-6.2 6.8 2.8 6.8 6.2-3.1 6.2-6.8 6.2z" fill="#de7093" opacity=".75"/><path d="m698.9 977.6 4.6-4.4c.4-.4.4-1 0-1.4s-1-.4-1.4 0l-4.7 4.5-4.9-4.3c-.4-.4-1-.3-1.4.1s-.3 1 .1 1.4l4.8 4.2-4.6 4.4c-.4.4-.4 1 0 1.4.2.2.5.3.7.3s.5-.1.7-.3l4.7-4.5 4.9 4.3c.2.2.4.3.7.3s.6-.1.8-.3c.4-.4.3-1-.1-1.4z" fill="#7e909e" opacity=".75"/><path d="m579.2 951.7c-19.6-3-19.8-2.5-20.2-1.8-.2.4-.1.9.1 1.2.8 1 16.2 19.2 16.8 20 .2.2.5.4.8.4h.3c.4-.1.7-.4.7-.8l2.4-17.8c0-.6-.4-1.1-.9-1.2zm-3.3 16.4c-3.2-3.8-11-13-14.1-16.7 3.1.3 9.8 1.2 16 2.1z" fill="#7e909e" opacity=".75"/><path d="m871.7 762.3c-.5-.2-1.1.1-1.3.6l-5.2 13.5c-.2.5.1 1.1.6 1.3.1 0 .2.1.4.1.4 0 .8-.2.9-.6l5.2-13.5c.1-.7-.1-1.2-.6-1.4z" fill="#7e909e" opacity=".75"/><path d="m632.9 542.7c-4.9 0-8.8 3.7-8.8 8.2s3.9 8.2 8.8 8.2 8.8-3.7 8.8-8.2-3.9-8.2-8.8-8.2zm0 14.4c-3.7 0-6.8-2.8-6.8-6.2s3.1-6.2 6.8-6.2 6.8 2.8 6.8 6.2-3.1 6.2-6.8 6.2z" fill="#7e909e" opacity=".75"/><path d="m612.7 737.7 4.6-4.4c.4-.4.4-1 0-1.4s-1-.4-1.4 0l-4.7 4.5-4.9-4.3c-.4-.4-1-.3-1.4.1s-.3 1 .1 1.4l4.8 4.2-4.6 4.4c-.4.4-.4 1 0 1.4.2.2.5.3.7.3s.5-.1.7-.3l4.7-4.5 4.9 4.3c.2.2.4.3.7.3s.6-.1.7-.3c.4-.4.3-1-.1-1.4z" fill="#7e909e" opacity=".75"/><path d="m1667.3 1021.9c.5.2 1.1 0 1.3-.5l5.9-13.2c.2-.5 0-1.1-.5-1.3-.1-.1-.2-.1-.4-.1-.4 0-.8.2-1 .6l-5.9 13.2c-.1.5.1 1.1.6 1.3z" fill="#7e909e" opacity=".75"/><path d="m1834.5 852.9c-4.9 0-8.8 3.7-8.8 8.2s3.9 8.2 8.8 8.2 8.8-3.7 8.8-8.2-3.9-8.2-8.8-8.2zm0 14.4c-3.7 0-6.8-2.8-6.8-6.2s3.1-6.2 6.8-6.2 6.8 2.8 6.8 6.2-3.1 6.2-6.8 6.2z" fill="#7e909e" opacity=".75"/><path d="m67.8 107c.2.2.4.3.7.3s.5-.1.7-.3c.4-.4.3-1-.1-1.4l-4.8-4.3 4.6-4.4c.4-.4.4-1 0-1.4s-1-.4-1.4 0l-4.7 4.5-4.8-4.4c-.4-.4-1-.3-1.4.1s-.3 1 .1 1.4l4.8 4.3-4.6 4.4c-.4.4-.4 1 0 1.4.2.2.5.3.7.3s.5-.1.7-.3l4.8-4.5z" fill="#2dccd3" opacity=".75"/><g fill="#7e909e"><path d="m1763.9 902.9c-19.6-3-19.8-2.5-20.2-1.8-.2.4-.1.9.1 1.2.8 1 16.2 19.2 16.8 20 .2.2.5.4.8.4h.3c.4-.1.7-.4.7-.8l2.4-17.8c0-.6-.4-1.1-.9-1.2zm-3.3 16.4c-3.2-3.8-11-13-14.1-16.7 3.1.3 9.8 1.2 16 2.1z" opacity=".75"/><path d="m1756.1 656.7c.1 0 .2.1.4.1.4 0 .8-.2.9-.6l5.2-13.5c.2-.5-.1-1.1-.6-1.3s-1.1.1-1.3.6l-5.2 13.5c-.1.5.1 1 .6 1.2z" opacity=".75"/><path d="m1514.9 875.4c-4.9 0-8.8 3.7-8.8 8.2s3.9 8.2 8.8 8.2 8.8-3.7 8.8-8.2-3.9-8.2-8.8-8.2zm0 14.4c-3.8 0-6.8-2.8-6.8-6.2s3.1-6.2 6.8-6.2 6.8 2.8 6.8 6.2-3.1 6.2-6.8 6.2z" opacity=".75"/><path d="m1273.5 943.9 4.6-4.4c.4-.4.4-1 0-1.4s-1-.4-1.4 0l-4.8 4.5-5-4.4c-.4-.4-1-.3-1.4.1s-.3 1 .1 1.4l4.9 4.3-4.6 4.4c-.4.4-.4 1 0 1.4.2.2.5.3.7.3s.5-.1.7-.3l4.7-4.5 4.9 4.3c.2.2.4.2.7.2s.6-.1.8-.3c.4-.4.3-1-.1-1.4z" opacity=".75"/><path d="m1153.7 917.9c-19.6-3-19.8-2.5-20.2-1.8-.2.4-.1.9.1 1.2.9 1 16.6 19.8 16.8 20s.5.4.8.4h.3c.4-.1.7-.4.7-.8l2.4-17.8c0-.6-.4-1.1-.9-1.2zm-3.3 16.4c-3.2-3.9-10.9-13-14-16.7 3.2.3 9.8 1.2 16 2.1z" opacity=".75"/><path d="m1440.3 743.8c.1 0 .2.1.4.1.4 0 .8-.2.9-.6l5.2-13.5c.2-.5-.1-1.1-.6-1.3s-1.1.1-1.3.6l-5.2 13.5c-.1.5.1 1 .6 1.2z" opacity=".75"/><path d="m1473.8 977.5c-.5-.1-1 .3-1.1.9 0 .2-.7 4.8-5 6.3-4.5 1.4-8.4-1.9-8.4-1.9-.2-.2-4.9-4.2-10.4-2.3s-6.3 7.7-6.4 7.9c0 .2 0 .4.1.6-.3 1.2-1.3 4.7-4.9 5.9-4.5 1.4-8.4-1.9-8.4-1.9-.2-.2-4.9-4.2-10.4-2.3s-6.3 7.7-6.4 7.9c0 0-.7 4.8-5 6.3-.5.2-.8.7-.6 1.3.1.4.5.7.9.7.1 0 .2 0 .3-.1 5.5-1.9 6.3-7.7 6.4-7.9 0-.2.7-4.8 5-6.3 4.4-1.5 8.4 1.9 8.4 1.9.2.2 4.8 4 10.4 2.3 5.5-1.9 6.3-7.7 6.4-7.9 0-.2 0-.4-.1-.6.3-1.2 1.3-4.6 5-5.9 4.4-1.5 8.4 1.9 8.4 1.9.2.2 4.8 4 10.4 2.3 5.5-1.9 6.3-7.7 6.4-7.9 0-.6-.4-1.1-1-1.2z" opacity=".75"/><path d="m68.5 255.8c-4.9 0-8.8 3.7-8.8 8.2s3.9 8.2 8.8 8.2 8.8-3.7 8.8-8.2-3.9-8.2-8.8-8.2zm0 14.4c-3.7 0-6.8-2.8-6.8-6.2s3.1-6.2 6.8-6.2 6.8 2.8 6.8 6.2-3.1 6.2-6.8 6.2z" opacity=".75"/><path d="m993.4 153.9 4.6-4.4c.4-.4.4-1 0-1.4s-1-.4-1.4 0l-4.7 4.5-4.9-4.3c-.4-.4-1-.3-1.4.1s-.3 1 .1 1.4l4.8 4.2-4.6 4.4c-.4.4-.4 1 0 1.4.2.2.5.3.7.3s.5-.1.7-.3l4.7-4.5 4.9 4.3c.2.2.4.3.7.3s.6-.1.7-.3c.4-.4.3-1-.1-1.4z" opacity=".75"/><path d="m1130.3 180.5c-.9-1-16.6-19.8-16.8-20-.3-.3-.7-.4-1-.3-.4.1-.7.4-.7.8l-2.4 17.8c-.1.5.3 1 .8 1.1 11.5 1.8 16.3 2.3 18.5 2.3 1.5 0 1.6-.3 1.8-.6.2-.2.1-.7-.2-1.1zm-18.8-2.3 2-14.6c3.2 3.9 10.9 13 14 16.7-3.2-.3-9.8-1.2-16-2.1z" opacity=".75"/><path d="m66.3 908.9c-.5-.2-1.1.1-1.3.6l-5.2 13.5c-.2.5.1 1.1.6 1.3.1 0 .2.1.4.1.4 0 .8-.2.9-.6l5.2-13.5c.1-.7-.1-1.2-.6-1.4z" opacity=".75"/><path d="m360.6 488c-5.5 1.9-6.3 7.7-6.4 7.9 0 0-.7 4.8-5 6.3-4.4 1.5-8.4-1.9-8.4-1.9-.2-.2-4.8-4-10.4-2.3-5.5 1.9-6.3 7.7-6.4 7.9 0 .2 0 .4.1.6-.3 1.2-1.3 4.6-5 5.9-4.4 1.5-8.4-1.9-8.4-1.9-.2-.2-4.8-4-10.4-2.3-5.7 1.8-6.4 7.7-6.4 7.9-.1.5.3 1 .9 1.1h.1c.5 0 .9-.4 1-.9 0-.2.6-4.9 5-6.3 4.5-1.4 8.4 1.9 8.4 1.9.2.2 4.9 4.2 10.4 2.3s6.3-7.7 6.4-7.9c0-.2 0-.4-.1-.6.3-1.2 1.3-4.7 4.9-5.9 4.5-1.4 8.4 1.9 8.4 1.9.2.2 4.9 4.2 10.4 2.3s6.3-7.7 6.4-7.9c0 0 .7-4.8 5-6.3.5-.2.8-.7.6-1.3s-.6-.7-1.1-.5z" opacity=".75"/></g></svg>