<?xml version="1.0" encoding="utf-8"?>
<!-- Generator: Adobe Illustrator 23.0.2, SVG Export Plug-In . SVG Version: 6.00 Build 0)  -->
<svg version="1.1" id="Layer_1" xmlns="http://www.w3.org/2000/svg" xmlns:xlink="http://www.w3.org/1999/xlink" x="0px" y="0px"
	 viewBox="0 0 1920 1080" style="enable-background:new 0 0 1920 1080;" xml:space="preserve">
<style type="text/css">
	.st0{opacity:0.25;fill:#7E909E;enable-background:new    ;}
</style>
<path class="st0" d="M626.9,829.5c-4.4,0-8,3.4-8,7.5s3.6,7.5,8,7.5s8-3.4,8-7.5S631.3,829.5,626.9,829.5z M626.9,842.5
	c-3.3,0-6-2.5-6-5.5s2.7-5.5,6-5.5s6,2.5,6,5.5S630.2,842.5,626.9,842.5z"/>
<path class="st0" d="M268.8,811.8c-4.1,0-7.5,3.6-7.5,8s3.4,8,7.5,8s7.5-3.6,7.5-8S272.9,811.8,268.8,811.8z M268.8,825.8
	c-3,0-5.5-2.7-5.5-6s2.5-6,5.5-6s5.5,2.7,5.5,6S271.8,825.8,268.8,825.8z"/>
<path class="st0" d="M84,783.1l3.9-4.4c0.4-0.4,0.3-1-0.1-1.4s-1-0.3-1.4,0.1l-3.8,4.3l-3.9-4.1c-0.4-0.4-1-0.4-1.4,0s-0.4,1,0,1.4
	l4,4.2l-3.9,4.4c-0.4,0.4-0.3,1,0.1,1.4c0.2,0.2,0.4,0.2,0.7,0.2c0.3,0,0.6-0.1,0.8-0.3l3.8-4.3l3.9,4.1c0.2,0.2,0.5,0.3,0.7,0.3
	s0.5-0.1,0.7-0.3c0.4-0.4,0.4-1,0-1.4L84,783.1z"/>
<path class="st0" d="M26.6,586.4c-0.4-0.2-0.9-0.1-1.2,0.1l0,0c-0.6,0.6-16.7,14.1-17.8,15c-0.2,0.1-0.4,0.3-0.4,0.6
	c-0.1,0.5,0.1,1,0.6,1.2c0.1,0,0.2,0.1,0.3,0.1l15.9,2.2h0.1c0.5,0,0.9-0.4,1-0.8C27.8,587.1,27.4,586.8,26.6,586.4z M23.3,603.5
	l-12.8-1.8c1.4-1.1,3.5-2.9,7-5.8c1.1-0.9,5.3-4.4,7.7-6.5C24.9,592.5,24,598.7,23.3,603.5z"/>
<path class="st0" d="M371.1,1010.8l-12.2-4.6c-0.5-0.2-1.1,0.1-1.3,0.6c-0.2,0.5,0.1,1.1,0.6,1.3l12.2,4.6c0.1,0,0.2,0.1,0.4,0.1
	c0.4,0,0.8-0.2,0.9-0.6C371.8,1011.5,371.6,1011,371.1,1010.8z"/>
<path class="st0" d="M146.7,1073.7c-0.2,0-4.3-0.5-5.6-4.4c-1.3-4,1.7-7.5,1.7-7.5c0.1-0.2,3.6-4.4,2-9.4c-1.7-5-7-5.7-7.2-5.8
	c-0.2,0-0.3,0-0.5,0.1c-0.9-0.2-4.2-1-5.3-4.4c-1.3-4,1.7-7.5,1.7-7.5c0.2-0.2,3.7-4.5,2.1-9.5c-1.7-5-7-5.7-7.2-5.8
	c-0.1,0-0.3,0-0.4,0c-1.1-0.2-4.1-1.2-5.2-4.3c-0.2-0.5-0.7-0.8-1.3-0.6c-0.5,0.2-0.8,0.7-0.6,1.3c1.7,5,7,5.7,7.2,5.8h0.1
	c0.1,0,0.2,0,0.2,0c1.1,0.2,4.1,1.1,5.2,4.4c1.3,3.9-1.7,7.5-1.7,7.5c-0.2,0.2-3.8,4.4-2.1,9.5c1.7,5.2,7,5.8,7.2,5.8h0.1
	c0.1,0,0.2,0,0.3-0.1c1,0.2,4.2,1.1,5.3,4.4c1.3,3.9-1.6,7.4-1.6,7.4c-0.2,0.2-3.8,4.4-2.1,9.5c1.7,5.2,7,5.8,7.2,5.8h0.1
	c0.5,0,0.9-0.4,1-0.9C147.7,1074.3,147.3,1073.8,146.7,1073.7z"/>
<path class="st0" d="M1393.4,1058c-4.4,0-8,3.4-8,7.5s3.6,7.5,8,7.5s8-3.4,8-7.5S1397.8,1058,1393.4,1058z M1393.4,1071
	c-3.3,0-6-2.5-6-5.5s2.7-5.5,6-5.5s6,2.5,6,5.5S1396.7,1071,1393.4,1071z"/>
<path class="st0" d="M1261.6,923.3c-0.5-0.2-1.1,0.1-1.3,0.6l-4.7,12.2c-0.2,0.5,0.1,1.1,0.6,1.3c0.1,0,0.2,0.1,0.4,0.1
	c0.4,0,0.8-0.2,0.9-0.6l4.7-12.2C1262.3,924,1262.1,923.5,1261.6,923.3z"/>
<path class="st0" d="M1056.7,830.2c-0.2,0-0.5,0.1-0.6,0.3c-1.3-0.1-4.1-0.7-5.6-3.5c-2-3.7,0.4-7.7,0.5-7.7
	c0.1-0.2,2.8-4.9,0.5-9.7c-2.5-4.7-7.8-4.6-8-4.6s-0.4,0.1-0.5,0.2c-1.2-0.1-4.1-0.6-5.7-3.6c-2-3.7,0.4-7.7,0.5-7.7
	c0.1-0.2,2.8-4.9,0.5-9.7c-2.5-4.7-7.8-4.6-8-4.6c-0.6,0-1,0.5-1,1c0,0.6,0.5,1,1,1c0,0,4.3,0,6.2,3.5c1.8,3.7-0.4,7.7-0.4,7.7
	c-0.1,0.2-3.1,4.9-0.5,9.7c2.4,4.4,7,4.6,7.9,4.6c0.1,0,0.1,0,0.2,0c0.2,0,0.3-0.1,0.5-0.2c1.2,0.1,4.2,0.7,5.7,3.5
	c1.8,3.7-0.4,7.7-0.4,7.7c-0.1,0.2-3.1,4.9-0.5,9.7c2.4,4.5,7.3,4.6,8,4.6c0,0,0,0,0.1,0c0.2,0,0.5-0.1,0.6-0.3
	c1.3,0.1,4.1,0.7,5.6,3.5c0.2,0.3,0.5,0.5,0.9,0.5c0.2,0,0.3,0,0.5-0.1c0.5-0.3,0.7-0.9,0.4-1.3
	C1062.2,830.1,1056.9,830.2,1056.7,830.2z"/>
<path class="st0" d="M1720,332.6c-4.1,0-7.5,3.6-7.5,8s3.4,8,7.5,8s7.5-3.6,7.5-8S1724.1,332.6,1720,332.6z M1720,346.6
	c-3,0-5.5-2.7-5.5-6s2.5-6,5.5-6s5.5,2.7,5.5,6S1723,346.6,1720,346.6z"/>
<path class="st0" d="M1508.1,230.9l3.8-4.4c0.4-0.4,0.3-1-0.1-1.4s-1-0.3-1.4,0.1l-3.7,4.2l-3.8-4c-0.4-0.4-1-0.4-1.4,0
	s-0.4,1,0,1.4l4,4.2l-3.9,4.5c-0.4,0.4-0.3,1,0.1,1.4c0.2,0.2,0.4,0.2,0.7,0.2c0.3,0,0.6-0.1,0.8-0.3l3.8-4.3l3.8,4.1
	c0.2,0.2,0.5,0.3,0.7,0.3s0.5-0.1,0.7-0.3c0.4-0.4,0.4-1,0-1.4L1508.1,230.9z"/>
<path class="st0" d="M1576.7,70.2c-0.4-0.2-0.8-0.1-1.2,0.1c-0.9,0.7-17.3,14.5-18,15.1c-0.3,0.3-0.4,0.7-0.3,1
	c0.1,0.4,0.4,0.7,0.8,0.7l16,2.2h0.1c0.5,0,0.9-0.4,1-0.8C1577.9,70.9,1577.5,70.6,1576.7,70.2z M1573.4,87.3l-12.8-1.8
	c4.8-4,11.6-9.8,14.7-12.3C1575,76.2,1574.1,82.4,1573.4,87.3z"/>
<path class="st0" d="M1068.7,216.5c-4.4,0-8,3.4-8,7.5s3.6,7.5,8,7.5s8-3.4,8-7.5S1073.1,216.5,1068.7,216.5z M1068.7,229.5
	c-3.3,0-6-2.5-6-5.5s2.7-5.5,6-5.5s6,2.5,6,5.5S1072,229.5,1068.7,229.5z"/>
<path class="st0" d="M833.7,572.4c-5,1.7-5.7,7-5.8,7.2v0.1l0,0c0,0-0.6,4.3-4.4,5.6c-3.9,1.3-7.5-1.7-7.5-1.7
	c-0.2-0.1-4.4-3.6-9.5-2.1c-5,1.7-5.7,7-5.8,7.2c0,0.2,0,0.4,0.1,0.6c-0.3,1.1-1.2,4.1-4.3,5.1c-3.9,1.3-7.5-1.7-7.5-1.7
	c-0.2-0.1-4.4-3.6-9.5-2.1c-5.2,1.7-5.8,7-5.8,7.2c-0.1,0.5,0.3,1,0.9,1.1h0.1c0.5,0,0.9-0.4,1-0.9c0,0,0.5-4.3,4.4-5.5
	c4-1.2,7.5,1.7,7.6,1.7c0.2,0.2,4.5,3.8,9.5,2.1s5.7-7,5.8-7.2c0-0.2,0-0.4-0.1-0.6c0.3-1.1,1.2-4.1,4.3-5.1c4-1.2,7.5,1.7,7.6,1.7
	c0.2,0.2,4.5,3.8,9.5,2.1s5.7-7,5.8-7.2v-0.1l0,0c0,0,0.6-4.3,4.4-5.6c0.5-0.2,0.8-0.7,0.6-1.3C834.8,572.5,834.2,572.2,833.7,572.4
	z"/>
<path class="st0" d="M1313.4,215.8c-0.6-0.6-14.1-16.7-15-17.8c-0.1-0.2-0.3-0.4-0.6-0.4c-0.5-0.1-1,0.1-1.2,0.6
	c0,0.1-0.1,0.2-0.1,0.3l-2.2,15.9c-0.1,0.5,0.3,1,0.8,1.1c10.3,1.6,14.7,2.1,16.7,2.1c1.4,0,1.5-0.3,1.7-0.6
	C1313.8,216.7,1313.7,216.2,1313.4,215.8L1313.4,215.8z M1296.5,213.7l1.8-12.8c1.1,1.4,2.9,3.5,5.8,7c0.9,1.1,4.4,5.3,6.5,7.7
	C1307.5,215.3,1301.3,214.4,1296.5,213.7z"/>
<path class="st0" d="M89.9,23.5c-4.4,0-8,3.4-8,7.5s3.6,7.5,8,7.5s8-3.4,8-7.5S94.3,23.5,89.9,23.5z M89.9,36.5c-3.3,0-6-2.5-6-5.5
	s2.7-5.5,6-5.5s6,2.5,6,5.5S93.2,36.5,89.9,36.5z"/>
<path class="st0" d="M1903,1068.6l-4.2-3.8l4.1-3.9c0.4-0.4,0.4-1,0-1.4s-1-0.4-1.4,0l-4.3,4l-4.3-3.9c-0.4-0.4-1-0.3-1.4,0.1
	s-0.3,1,0.1,1.4l4.2,3.8l-4.1,3.9c-0.4,0.4-0.4,1,0,1.4c0.2,0.2,0.5,0.3,0.7,0.3s0.5-0.1,0.7-0.3l4.2-4l4.3,3.9
	c0.2,0.2,0.4,0.3,0.7,0.3c0.3,0,0.5-0.1,0.7-0.3C1903.4,1069.6,1903.4,1068.9,1903,1068.6z"/>
<path class="st0" d="M254.6,213.8c-0.8-0.9-14.2-16.8-15-17.9c-0.1-0.2-0.3-0.4-0.6-0.4c-0.5-0.1-1,0.1-1.2,0.6
	c-0.1,0.2-0.1,0.3-0.1,0.5l-2.2,15.8c-0.1,0.5,0.3,1,0.8,1.1c10.3,1.6,14.7,2.1,16.7,2.1c1.4,0,1.5-0.3,1.7-0.6
	C255,214.7,254.9,214.2,254.6,213.8C254.7,213.8,254.6,213.8,254.6,213.8z M237.7,211.7l1.8-12.7c0.2,0.3,0.5,0.6,0.8,0.9
	c1.4,1.6,3.2,3.8,5,6c2.3,2.7,4.9,5.9,6.5,7.7C248.7,213.3,242.5,212.4,237.7,211.7z"/>
<path class="st0" d="M1644.7,858.2c-5,1.7-5.7,7-5.8,7.2c0,0.1,0,0.3,0,0.4c-0.2,1.1-1.2,4.1-4.4,5.2c-3.9,1.3-7.5-1.7-7.5-1.7
	c-0.2-0.1-4.4-3.6-9.5-2.1c-5,1.7-5.7,7-5.8,7.2c0,0.2,0,0.4,0.1,0.6c-0.2,1.1-1.2,4.1-4.4,5.2c-3.9,1.3-7.5-1.7-7.5-1.7
	c-0.2-0.1-4.4-3.6-9.5-2.1c-5,1.7-5.7,7-5.8,7.2c-0.1,0.5,0.3,1,0.9,1.1h0.1c0.5,0,0.9-0.4,1-0.9c0,0,0.6-4.3,4.4-5.6
	c4-1.2,7.5,1.7,7.6,1.7c0.2,0.2,4.5,3.7,9.5,2.1c5-1.7,5.7-7,5.8-7.2c0-0.2,0-0.4-0.1-0.6c0.2-1.1,1.2-4.1,4.3-5.2
	c4-1.2,7.5,1.7,7.6,1.7c0.2,0.2,4.5,3.7,9.5,2.1c5-1.7,5.7-7,5.8-7.2c0-0.1,0-0.3,0-0.4c0.2-1.1,1.2-4.1,4.4-5.2
	c0.5-0.2,0.8-0.7,0.6-1.3C1645.8,858.3,1645.2,858,1644.7,858.2z"/>
<path class="st0" d="M680.6,96.4l4.1-3.9c0.4-0.4,0.4-1,0-1.4s-1-0.4-1.4,0l-4.2,4l-4.3-3.8c-0.4-0.4-1-0.3-1.4,0.1s-0.3,1,0.1,1.4
	l4.2,3.7l-4.1,3.9c-0.4,0.4-0.4,1,0,1.4c0.2,0.2,0.5,0.3,0.7,0.3s0.5-0.1,0.7-0.3l4.3-4l4.4,3.9c0.2,0.2,0.4,0.2,0.7,0.2
	s0.6-0.1,0.8-0.3c0.4-0.4,0.3-1-0.1-1.4L680.6,96.4z"/>
<path class="st0" d="M847.7,393.3c-0.8-0.9-14.9-17.8-15.1-18c-0.3-0.3-0.7-0.4-1-0.3c-0.4,0.1-0.7,0.4-0.7,0.8l-2.2,16
	c-0.1,0.5,0.3,1,0.8,1.1c10.3,1.6,14.7,2.1,16.7,2.1c1.4,0,1.5-0.3,1.7-0.6C848.1,394.2,848,393.7,847.7,393.3
	C847.8,393.3,847.7,393.3,847.7,393.3z M830.8,391.2l1.8-12.8c2.9,3.5,9.4,11.3,12.3,14.7C841.8,392.8,835.6,391.9,830.8,391.2z"/>
<path class="st0" d="M473.9,75.4c-0.1,0-0.3,0-0.4,0.1c-1.1-0.1-4.2-0.5-5.8-3.6c-2-3.7,0.4-7.7,0.5-7.7c0.1-0.2,2.8-4.9,0.5-9.7
	c-2.5-4.7-7.8-4.6-8-4.6c-0.3,0-0.5,0.1-0.7,0.3c-1.3-0.2-4-0.8-5.5-3.5c-2-3.7,0.4-7.7,0.5-7.7c0.1-0.2,2.8-4.9,0.5-9.7
	c-2.5-4.7-7.8-4.6-8-4.6c-0.6,0-1,0.5-1,1c0,0.6,0.5,1,1,1c0,0,4.3,0,6.2,3.5c1.8,3.7-0.4,7.7-0.4,7.7c-0.1,0.2-3.1,4.9-0.5,9.7
	c2.4,4.5,7.3,4.6,7.9,4.6c0,0,0,0,0.1,0c0.3,0,0.5-0.1,0.7-0.3c1.3,0.2,4,0.8,5.5,3.5c1.8,3.7-0.4,7.7-0.4,7.7
	c-0.1,0.2-3.1,4.9-0.5,9.7c2.4,4.5,7.3,4.6,7.9,4.6c0,0,0,0,0.1,0s0.3,0,0.4-0.1c1.1,0.1,4.2,0.6,5.8,3.6c0.2,0.3,0.5,0.5,0.9,0.5
	c0.2,0,0.3,0,0.5-0.1c0.5-0.3,0.7-0.9,0.4-1.3C479.4,75.3,474.1,75.4,473.9,75.4z"/>
<path class="st0" d="M932.7,1013.4l4.1-3.9c0.4-0.4,0.4-1,0-1.4s-1-0.4-1.4,0l-4.2,4l-4.3-3.8c-0.4-0.4-1-0.3-1.4,0.1
	c-0.4,0.4-0.3,1,0.1,1.4l4.2,3.7l-4.1,3.9c-0.4,0.4-0.4,1,0,1.4c0.2,0.2,0.5,0.3,0.7,0.3s0.5-0.1,0.7-0.3l4.2-4l4.3,3.8
	c0.2,0.2,0.4,0.3,0.7,0.3s0.5-0.1,0.7-0.3c0.4-0.4,0.3-1-0.1-1.4L932.7,1013.4z"/>
<path class="st0" d="M1865.7,14.1c-0.5-0.2-1.1,0.1-1.3,0.6l-4.7,12.2c-0.2,0.5,0.1,1.1,0.6,1.3c0.1,0,0.2,0.1,0.4,0.1
	c0.4,0,0.8-0.2,0.9-0.6l4.7-12.2C1866.4,14.8,1866.2,14.3,1865.7,14.1z"/>
</svg>
