<?xml version="1.0" encoding="utf-8"?>
<!-- Generator: Adobe Illustrator 23.0.2, SVG Export Plug-In . SVG Version: 6.00 Build 0)  -->
<svg version="1.1" id="Layer_1" xmlns="http://www.w3.org/2000/svg" xmlns:xlink="http://www.w3.org/1999/xlink" x="0px" y="0px"
	 viewBox="0 0 1920 1080" style="enable-background:new 0 0 1920 1080;" xml:space="preserve">
<style type="text/css">
	.st0{opacity:0.5;fill:#7E909E;enable-background:new    ;}
</style>
<path class="st0" d="M539.9,391.8c-4.9,0-8.8,3.7-8.8,8.2s3.9,8.2,8.8,8.2c4.9,0,8.8-3.7,8.8-8.2S544.8,391.8,539.9,391.8z
	 M539.9,406.2c-3.7,0-6.8-2.8-6.8-6.2s3.1-6.2,6.8-6.2s6.8,2.8,6.8,6.2S543.6,406.2,539.9,406.2z"/>
<path class="st0" d="M568,581.2c-0.4-0.4-1-0.5-1.4-0.1l-4.9,4.3L557,581c-0.4-0.4-1-0.4-1.4,0s-0.4,1,0,1.4l4.6,4.4l-4.8,4.2
	c-0.4,0.4-0.5,1-0.1,1.4c0.2,0.2,0.5,0.3,0.7,0.3s0.5-0.1,0.7-0.3l4.9-4.3l4.7,4.5c0.2,0.2,0.4,0.3,0.7,0.3s0.5-0.1,0.7-0.3
	c0.4-0.4,0.4-1,0-1.4l-4.6-4.4l4.8-4.2C568.4,582.3,568.4,581.7,568,581.2z"/>
<path class="st0" d="M679.9,560.8c-0.5,0.1-0.9,0.6-0.8,1.1l2.4,17.8c0.1,0.4,0.3,0.7,0.7,0.8c0.1,0,0.2,0,0.3,0
	c0.3,0,0.6-0.1,0.8-0.4c0.7-0.8,16-19,16.8-20c0.3-0.3,0.4-0.8,0.1-1.2C699.8,558.3,699.5,557.8,679.9,560.8z M683.2,577.2l-2-14.6
	c5.5-0.8,12.7-1.8,16-2.1C694.2,564.2,686.4,573.4,683.2,577.2z"/>
<path class="st0" d="M392.1,386.2c0.2,0.4,0.5,0.6,0.9,0.6c0.1,0,0.2,0,0.4-0.1c0.5-0.2,0.8-0.8,0.6-1.3l-5.2-13.5
	c-0.2-0.5-0.8-0.8-1.3-0.6c-0.5,0.2-0.8,0.8-0.6,1.3L392.1,386.2z"/>
<path class="st0" d="M426.2,647.8c-4.3-1.5-5-6.1-5-6.3s-0.8-6-6.4-7.9c-5.5-1.9-10.2,2.1-10.4,2.3c0,0-4,3.3-8.4,1.9
	c-3.7-1.2-4.7-4.7-5-5.9c0.1-0.2,0.2-0.4,0.1-0.6c0-0.2-0.8-6-6.4-7.9c-5.5-1.9-10.2,2.1-10.4,2.3c0,0-4,3.3-8.4,1.9
	c-4.3-1.5-5-6.1-5-6.3c-0.1-0.5-0.6-0.9-1.1-0.9c-0.5,0.1-0.9,0.6-0.9,1.1c0,0.2,0.8,6,6.4,7.9c5.6,1.7,10.2-2.1,10.4-2.3
	c0,0,4-3.4,8.4-1.9c3.7,1.2,4.7,4.7,5,5.9c-0.1,0.2-0.2,0.4-0.1,0.6c0,0.2,0.8,6,6.4,7.9c5.6,1.7,10.2-2.1,10.4-2.3
	c0,0,4-3.4,8.4-1.9c4.3,1.5,5,6.1,5,6.3l0,0c0,0.2,0.8,6,6.4,7.9c0.1,0,0.2,0.1,0.3,0.1c0.4,0,0.8-0.3,0.9-0.7
	C427,648.5,426.7,647.9,426.2,647.8z"/>
<path class="st0" d="M96.6,263.6c-0.4-0.4-1-0.4-1.4,0l-4.4,4.7l-4.3-4.9c-0.4-0.4-1-0.5-1.4-0.1s-0.5,1-0.1,1.4l4.4,5l-4.5,4.8
	c-0.4,0.4-0.4,1,0,1.4c0.2,0.2,0.4,0.3,0.7,0.3c0.3,0,0.5-0.1,0.7-0.3l4.4-4.6l4.3,4.8c0.2,0.2,0.5,0.3,0.7,0.3s0.5-0.1,0.7-0.3
	c0.4-0.4,0.5-1,0.1-1.4l-4.4-4.9l4.5-4.8C97,264.6,97,264,96.6,263.6z"/>
<path class="st0" d="M115.6,387.2l-17.8,2.4c-0.4,0.1-0.7,0.3-0.8,0.7c-0.1,0.4,0,0.8,0.3,1c0.2,0.2,19.1,16,20,16.8
	c0.2,0.2,0.5,0.3,0.7,0.3s0.3,0,0.5-0.1c0.7-0.4,1.3-0.7-1.8-20.2C116.6,387.5,116.1,387.1,115.6,387.2z M100.3,391.3l14.6-2
	c0.8,5.5,1.8,12.6,2.1,16C113.3,402.2,104.1,394.5,100.3,391.3z"/>
<path class="st0" d="M304.8,95l-13.5,5.1c-0.5,0.2-0.8,0.8-0.6,1.3c0.2,0.4,0.5,0.6,0.9,0.6c0.1,0,0.2,0,0.4-0.1l13.5-5.1
	c0.5-0.2,0.8-0.8,0.6-1.3S305.4,94.8,304.8,95z"/>
<path class="st0" d="M56.1,67.1c-0.3,0-6.2,0.7-7.9,6.4c-1.7,5.6,2.1,10.2,2.3,10.4c0,0,3.3,3.9,1.8,8.3c-1.3,3.8-5,4.8-6,5
	c-0.1,0-0.3-0.1-0.4-0.1c-0.3,0-6.2,0.7-7.9,6.4c-1.7,5.6,2.1,10.2,2.3,10.4c0,0,3.4,4,1.9,8.4c-1.2,3.7-4.7,4.7-5.9,5
	c-0.1,0-0.3,0-0.4,0c-0.2,0-6,0.8-7.9,6.4c-0.2,0.5,0.1,1.1,0.6,1.3c0.1,0,0.2,0.1,0.3,0.1c0.4,0,0.8-0.3,0.9-0.7
	c1.3-3.7,4.8-4.7,5.9-5c0.1,0,0.1,0,0.2,0H36c0.2,0,6-0.8,7.9-6.4c1.9-5.5-2.1-10.2-2.3-10.4c0,0-3.3-3.9-1.9-8.4c1.2-3.9,5-4.8,6-5
	c0.1,0,0.2,0.1,0.4,0.1h0.1c0.2,0,6-0.8,7.9-6.4c1.9-5.5-2-10.1-2.2-10.3c0,0-3.3-3.9-1.9-8.4c1.4-4.4,6.1-5,6.3-5
	c0.5-0.1,0.9-0.6,0.9-1.1C57.1,67.4,56.6,67,56.1,67.1z"/>
<path class="st0" d="M1441.6,119c-4.9,0-8.8,3.7-8.8,8.2s3.9,8.2,8.8,8.2s8.8-3.7,8.8-8.2S1446.5,119,1441.6,119z M1441.6,133.4
	c-3.7,0-6.8-2.8-6.8-6.2c0-3.4,3.1-6.2,6.8-6.2c3.8,0,6.8,2.8,6.8,6.2C1448.4,130.6,1445.3,133.4,1441.6,133.4z"/>
<path class="st0" d="M1469.8,308.4c-0.4-0.4-1-0.5-1.4-0.1l-4.9,4.3l-4.7-4.5c-0.4-0.4-1-0.4-1.4,0s-0.4,1,0,1.4l4.6,4.4l-4.9,4.3
	c-0.4,0.4-0.5,1-0.1,1.4c0.2,0.2,0.5,0.3,0.8,0.3c0.2,0,0.5-0.1,0.7-0.2l5-4.4l4.8,4.5c0.2,0.2,0.4,0.3,0.7,0.3
	c0.3,0,0.5-0.1,0.7-0.3c0.4-0.4,0.4-1,0-1.4l-4.6-4.4l4.8-4.2C1470.1,309.5,1470.1,308.9,1469.8,308.4z"/>
<path class="st0" d="M1581.6,288.1c-0.5,0.1-0.9,0.6-0.8,1.1l2.4,17.8c0.1,0.4,0.3,0.7,0.7,0.8c0.1,0,0.2,0,0.3,0
	c0.3,0,0.6-0.1,0.8-0.4c0.2-0.2,15.9-19,16.8-20c0.3-0.3,0.4-0.8,0.1-1.2C1601.5,285.6,1601.2,285.1,1581.6,288.1z M1584.9,304.5
	l-2-14.6c5.5-0.8,12.6-1.8,16-2.1C1595.8,291.5,1588.1,300.7,1584.9,304.5z"/>
<path class="st0" d="M1293.8,113.5c0.2,0.4,0.5,0.6,0.9,0.6c0.1,0,0.2,0,0.4-0.1c0.5-0.2,0.8-0.8,0.6-1.3l-5.2-13.5
	c-0.2-0.5-0.8-0.8-1.3-0.6c-0.5,0.2-0.8,0.8-0.6,1.3L1293.8,113.5z"/>
<path class="st0" d="M1327.8,375.1c-3.7-1.3-4.7-4.9-5-6c0-0.1,0.1-0.3,0-0.4c0-0.2-0.8-6-6.4-7.9c-5.5-1.9-10.2,2.1-10.4,2.3
	c0,0-4,3.3-8.4,1.9c-3.7-1.3-4.7-4.9-5-6c0-0.1,0.1-0.3,0-0.4c0-0.2-0.8-6-6.4-7.9c-5.5-1.9-10.2,2.1-10.4,2.3c0,0-3.9,3.3-8.4,1.9
	c-4.3-1.5-5-6.1-5-6.3c-0.1-0.5-0.6-0.9-1.1-0.9c-0.5,0.1-0.9,0.6-0.9,1.1c0,0.2,0.8,6,6.4,7.9c5.6,1.7,10.2-2.1,10.4-2.3
	c0,0,4-3.4,8.4-1.9c3.7,1.3,4.7,4.9,5,6c0,0.1-0.1,0.3,0,0.4c0,0.2,0.8,6,6.4,7.9c5.6,1.7,10.2-2.1,10.4-2.3c0,0,4.1-3.4,8.4-1.9
	c3.7,1.3,4.7,4.9,5,6c0,0.1-0.1,0.3,0,0.4c0,0.2,0.8,6,6.4,7.9c0.1,0,0.2,0.1,0.3,0.1c0.4,0,0.8-0.3,0.9-0.7
	C1328.6,375.8,1328.3,375.2,1327.8,375.1z"/>
<path class="st0" d="M1623.4,777.3c-0.4-0.4-1-0.4-1.4,0l-4.4,4.6l-4.3-4.9c-0.4-0.4-1-0.5-1.4-0.1s-0.5,1-0.1,1.4l4.4,5l-4.5,4.8
	c-0.4,0.4-0.4,1,0,1.4c0.2,0.2,0.4,0.3,0.7,0.3c0.3,0,0.5-0.1,0.7-0.3l4.4-4.6l4.2,4.8c0.2,0.2,0.5,0.3,0.8,0.3
	c0.2,0,0.5-0.1,0.7-0.2c0.4-0.4,0.5-1,0.1-1.4l-4.3-4.9l4.5-4.7C1623.8,778.3,1623.8,777.7,1623.4,777.3z"/>
<path class="st0" d="M1642.4,900.8l-17.8,2.4c-0.4,0.1-0.7,0.3-0.8,0.7s0,0.8,0.3,1c0.8,0.7,19,16,20,16.8c0.2,0.2,0.5,0.3,0.7,0.3
	s0.3,0,0.5-0.1c0.7-0.4,1.3-0.7-1.8-20.2C1643.4,901.1,1642.9,900.7,1642.4,900.8z M1627.1,904.9l14.6-2c1,6.2,1.9,12.9,2.1,16
	C1640.1,915.9,1630.9,908.1,1627.1,904.9z"/>
<path class="st0" d="M1831.6,608.6l-13.5,5.2c-0.5,0.2-0.8,0.8-0.6,1.3c0.2,0.4,0.5,0.6,0.9,0.6c0.1,0,0.2,0,0.4-0.1l13.5-5.2
	c0.5-0.2,0.8-0.8,0.6-1.3S1832.2,608.4,1831.6,608.6z"/>
<path class="st0" d="M1582.8,580.6c-0.3,0-6.2,0.7-7.9,6.4c-1.7,5.6,2.1,10.2,2.3,10.4c0,0,3.4,4,1.9,8.4c-1.3,3.7-4.9,4.7-6,5
	c-0.1,0-0.3-0.1-0.4,0c-0.2,0-6,0.8-7.9,6.4c-1.7,5.6,2.1,10.2,2.3,10.4c0,0,3.4,4,1.9,8.4c-1.3,3.7-4.9,4.7-6,5
	c-0.1,0-0.3-0.1-0.4,0c-0.2,0-6,0.8-7.9,6.4c-0.2,0.5,0.1,1.1,0.6,1.3c0.1,0,0.2,0.1,0.3,0.1c0.4,0,0.8-0.3,0.9-0.7
	c1.3-3.7,4.9-4.7,6-5c0.1,0,0.2,0.1,0.3,0.1h0.1c0.2,0,6-0.8,7.9-6.4c1.9-5.5-2.1-10.2-2.3-10.4c0,0-3.3-4-1.9-8.4
	c1.3-3.7,4.9-4.8,6-5c0.1,0,0.2,0.1,0.3,0.1h0.1c0.2,0,6-0.8,7.9-6.4c1.9-5.5-2.1-10.2-2.3-10.4c0,0-3.3-3.9-1.9-8.4
	c1.4-4.4,6.1-5,6.3-5c0.5-0.1,0.9-0.6,0.9-1.1C1583.8,580.9,1583.3,580.5,1582.8,580.6z"/>
<path class="st0" d="M1080.8,882.9c-4.9,0-8.8,3.7-8.8,8.2s3.9,8.2,8.8,8.2s8.8-3.7,8.8-8.2S1085.7,882.9,1080.8,882.9z
	 M1080.8,897.3c-3.7,0-6.8-2.8-6.8-6.2s3.1-6.2,6.8-6.2s6.8,2.8,6.8,6.2C1087.6,894.5,1084.5,897.3,1080.8,897.3z"/>
<path class="st0" d="M1228.8,972c-0.4-0.4-1-0.5-1.4-0.1l-4.9,4.3l-4.7-4.5c-0.4-0.4-1-0.4-1.4,0s-0.4,1,0,1.4l4.6,4.4l-4.8,4.2
	c-0.4,0.4-0.5,1-0.1,1.4c0.2,0.2,0.5,0.3,0.7,0.3s0.5-0.1,0.7-0.3l4.9-4.3l4.7,4.5c0.2,0.2,0.4,0.3,0.7,0.3c0.3,0,0.5-0.1,0.7-0.3
	c0.4-0.4,0.4-1,0-1.4l-4.6-4.4l4.8-4.2C1229.2,973.1,1229.2,972.5,1228.8,972z"/>
<path class="st0" d="M1340.7,951.7c-0.5,0.1-0.9,0.6-0.8,1.1l2.4,17.8c0.1,0.4,0.3,0.7,0.7,0.8c0.1,0,0.2,0,0.3,0
	c0.3,0,0.6-0.1,0.8-0.4c0.7-0.8,16-19,16.8-20c0.3-0.3,0.4-0.8,0.1-1.2C1360.6,949.2,1360.3,948.7,1340.7,951.7z M1344,968.1
	l-2-14.6c6.2-1,12.9-1.9,16-2.1C1355,955.1,1347.2,964.3,1344,968.1z"/>
<path class="st0" d="M1052.9,777.1c0.2,0.4,0.5,0.6,0.9,0.6c0.1,0,0.2,0,0.4-0.1c0.5-0.2,0.8-0.8,0.6-1.3l-5.2-13.5
	c-0.2-0.5-0.8-0.8-1.3-0.6s-0.8,0.8-0.6,1.3L1052.9,777.1z"/>
<path class="st0" d="M1087,1038.7c-4.3-1.5-5-6.1-5-6.3l0,0v-0.1c0-0.2-0.8-6-6.4-7.9c-5.5-1.9-10.2,2.1-10.4,2.3c0,0-4,3.3-8.4,1.9
	c-3.6-1.2-4.7-4.6-4.9-5.8c0.1-0.2,0.1-0.4,0.1-0.6c0-0.2-0.8-6-6.4-7.9c-5.5-1.9-10.2,2.1-10.4,2.3c0,0-4,3.3-8.5,1.9
	c-4.4-1.4-5-6.1-5-6.3c-0.1-0.5-0.6-0.9-1.1-0.9c-0.5,0.1-0.9,0.6-0.9,1.1c0,0.3,0.7,6.2,6.4,7.9c5.6,1.7,10.2-2.1,10.4-2.3
	c0,0,4-3.4,8.4-1.9c3.6,1.2,4.7,4.6,4.9,5.8c-0.1,0.2-0.1,0.4-0.1,0.6c0,0.2,0.8,6,6.4,7.9c5.6,1.8,10.2-2.1,10.4-2.3
	c0,0,4-3.4,8.4-1.9c4.3,1.5,5,6.1,5,6.3l0,0v0.1c0,0.2,0.8,6,6.4,7.9c0.1,0,0.2,0.1,0.3,0.1c0.4,0,0.8-0.3,0.9-0.7
	C1087.8,1039.4,1087.5,1038.8,1087,1038.7z"/>
<path class="st0" d="M1287,542.7c-4.9,0-8.8,3.7-8.8,8.2s3.9,8.2,8.8,8.2s8.8-3.7,8.8-8.2S1291.9,542.7,1287,542.7z M1287,557.1
	c-3.7,0-6.8-2.8-6.8-6.2s3.1-6.2,6.8-6.2s6.8,2.8,6.8,6.2S1290.7,557.1,1287,557.1z"/>
<path class="st0" d="M1315,732.1c-0.4-0.4-1-0.5-1.4-0.1l-4.9,4.3l-4.7-4.5c-0.4-0.4-1-0.4-1.4,0s-0.4,1,0,1.4l4.6,4.4l-4.8,4.2
	c-0.4,0.4-0.5,1-0.1,1.4c0.2,0.2,0.5,0.3,0.7,0.3s0.5-0.1,0.7-0.3l4.9-4.3l4.7,4.5c0.2,0.2,0.4,0.3,0.7,0.3c0.3,0,0.5-0.1,0.7-0.3
	c0.4-0.4,0.4-1,0-1.4l-4.6-4.4l4.8-4.2C1315.4,733.2,1315.4,732.6,1315,732.1z"/>
<path class="st0" d="M1426.9,711.7c-0.5,0.1-0.9,0.6-0.8,1.1l2.4,17.8c0.1,0.4,0.3,0.7,0.7,0.8c0.1,0,0.2,0,0.3,0
	c0.3,0,0.6-0.1,0.8-0.4c0.2-0.2,16-19.1,16.8-20c0.3-0.3,0.3-0.8,0.1-1.2C1446.8,709.2,1446.5,708.7,1426.9,711.7z M1430.2,728.1
	l-2-14.6c5.5-0.8,12.7-1.8,16-2.1C1441.1,715.1,1433.4,724.3,1430.2,728.1z"/>
<path class="st0" d="M1139.1,537.1c0.2,0.4,0.5,0.6,0.9,0.6c0.1,0,0.2,0,0.4-0.1c0.5-0.2,0.8-0.8,0.6-1.3l-5.2-13.5
	c-0.2-0.5-0.8-0.8-1.3-0.6s-0.8,0.8-0.6,1.3L1139.1,537.1z"/>
<path class="st0" d="M1173.2,798.7c-4.3-1.5-5-6.1-5-6.3l0,0c0-0.2-0.8-6-6.4-7.9c-5.5-1.9-10.2,2.1-10.4,2.3c0,0-4,3.3-8.5,1.9
	c-3.7-1.2-4.7-4.7-4.9-5.9c0.1-0.2,0.2-0.4,0.1-0.6c0-0.2-0.8-6-6.4-7.9c-5.5-1.9-10.2,2.1-10.4,2.3c0,0-3.9,3.3-8.4,1.9
	c-4.4-1.4-5-6.1-5-6.3c-0.1-0.5-0.6-0.9-1.1-0.9c-0.5,0.1-0.9,0.6-0.9,1.1c0,0.3,0.7,6.2,6.4,7.9c5.6,1.7,10.2-2.1,10.4-2.3
	c0,0,4-3.4,8.4-1.9c3.7,1.2,4.7,4.7,5,5.9c-0.1,0.2-0.2,0.4-0.1,0.6c0,0.3,0.7,6.2,6.4,7.9c5.6,1.8,10.2-2.1,10.4-2.3
	c0,0,4-3.4,8.4-1.9c4.3,1.5,5,6,5,6.3l0,0c0,0.2,0.8,6,6.4,7.9c0.1,0,0.2,0.1,0.3,0.1c0.4,0,0.8-0.3,0.9-0.7
	C1174,799.4,1173.7,798.8,1173.2,798.7z"/>
<path class="st0" d="M85.4,852.9c-4.9,0-8.8,3.7-8.8,8.2s3.9,8.2,8.8,8.2s8.8-3.7,8.8-8.2S90.3,852.9,85.4,852.9z M85.4,867.3
	c-3.7,0-6.8-2.8-6.8-6.2s3.1-6.2,6.8-6.2s6.8,2.8,6.8,6.2C92.2,864.5,89.1,867.3,85.4,867.3z"/>
<path class="st0" d="M1858.4,101.3l4.8-4.3c0.4-0.4,0.4-1,0.1-1.4c-0.4-0.4-1-0.4-1.4-0.1l-4.9,4.4l-4.7-4.5c-0.4-0.4-1-0.4-1.4,0
	s-0.4,1,0,1.4l4.6,4.4l-4.8,4.3c-0.4,0.4-0.4,1-0.1,1.4c0.2,0.2,0.5,0.3,0.7,0.3s0.5-0.1,0.7-0.3l4.9-4.4l4.8,4.5
	c0.2,0.2,0.4,0.3,0.7,0.3c0.3,0,0.5-0.1,0.7-0.3c0.4-0.4,0.4-1,0-1.4L1858.4,101.3z"/>
<path class="st0" d="M156,902.9c-0.5,0.1-0.9,0.6-0.8,1.1l2.4,17.8c0.1,0.4,0.3,0.7,0.7,0.8c0.1,0,0.2,0,0.3,0
	c0.3,0,0.6-0.1,0.8-0.4c0.7-0.8,16-19,16.8-20c0.3-0.3,0.4-0.8,0.1-1.2C175.9,900.4,175.6,899.9,156,902.9z M159.3,919.3l-2-14.6
	c6.2-1,12.9-1.9,16-2.1C170.3,906.3,162.5,915.5,159.3,919.3z"/>
<path class="st0" d="M162.5,656.2c0.2,0.4,0.5,0.6,0.9,0.6c0.1,0,0.2,0,0.4-0.1c0.5-0.2,0.8-0.8,0.6-1.3l-5.2-13.5
	c-0.2-0.5-0.8-0.8-1.3-0.6s-0.8,0.8-0.6,1.3L162.5,656.2z"/>
<path class="st0" d="M1721.5,162.3c-4.3-1.5-5-6.1-5-6.3s-0.8-6-6.4-7.9c-5.5-1.9-10.2,2.1-10.4,2.3c0,0-4,3.3-8.4,1.9
	c-3.7-1.2-4.7-4.7-5-5.9c0.1-0.2,0.2-0.4,0.1-0.6c0-0.2-0.8-6-6.4-7.9c-5.5-1.9-10.2,2.1-10.4,2.3c0,0-4,3.3-8.4,1.9
	c-4.3-1.5-5-6.1-5-6.3c-0.1-0.5-0.6-0.9-1.1-0.9c-0.5,0.1-0.9,0.6-0.9,1.1c0,0.2,0.8,6,6.4,7.9c5.6,1.7,10.2-2.1,10.4-2.3
	c0,0,4-3.4,8.4-1.9c3.7,1.2,4.7,4.7,5,5.9c-0.1,0.2-0.2,0.4-0.1,0.6c0,0.2,0.8,6,6.4,7.9c5.6,1.7,10.2-2.1,10.4-2.3
	c0,0,4-3.4,8.4-1.9c4.3,1.5,5,6,5,6.3l0,0c0,0.2,0.8,6,6.4,7.9c0.1,0,0.2,0.1,0.3,0.1c0.4,0,0.8-0.3,0.9-0.7
	C1722.3,163,1722,162.4,1721.5,162.3z"/>
<path class="st0" d="M405,875.4c-4.9,0-8.8,3.7-8.8,8.2s3.9,8.2,8.8,8.2s8.8-3.7,8.8-8.2S409.9,875.4,405,875.4z M405,889.8
	c-3.7,0-6.8-2.8-6.8-6.2s3.1-6.2,6.8-6.2s6.8,2.8,6.8,6.2S408.7,889.8,405,889.8z"/>
<path class="st0" d="M654.4,938.3c-0.4-0.4-1-0.5-1.4-0.1l-5,4.4l-4.8-4.5c-0.4-0.4-1-0.4-1.4,0s-0.4,1,0,1.4l4.6,4.4l-4.8,4.2
	c-0.4,0.4-0.5,1-0.1,1.4c0.2,0.2,0.5,0.3,0.8,0.3c0.2,0,0.5-0.1,0.7-0.2l4.9-4.3l4.7,4.5c0.2,0.2,0.4,0.3,0.7,0.3s0.5-0.1,0.7-0.3
	c0.4-0.4,0.4-1,0-1.4l-4.6-4.4l4.9-4.3C654.7,939.4,654.7,938.8,654.4,938.3z"/>
<path class="st0" d="M766.2,917.9c-0.5,0.1-0.9,0.6-0.8,1.1l2.4,17.8c0.1,0.4,0.3,0.7,0.7,0.8c0.1,0,0.2,0,0.3,0
	c0.3,0,0.6-0.1,0.8-0.4c0.2-0.2,15.9-19,16.8-20c0.3-0.3,0.4-0.8,0.1-1.2C786.1,915.4,785.8,914.9,766.2,917.9z M769.5,934.3
	l-2-14.6c5.5-0.8,12.6-1.8,16-2.1C780.4,921.3,772.7,930.5,769.5,934.3z"/>
<path class="st0" d="M478.3,743.3c0.2,0.4,0.5,0.6,0.9,0.6c0.1,0,0.2,0,0.4-0.1c0.5-0.2,0.8-0.8,0.6-1.3L475,729
	c-0.2-0.5-0.8-0.8-1.3-0.6s-0.8,0.8-0.6,1.3L478.3,743.3z"/>
<path class="st0" d="M512.4,1004.9c-4.3-1.5-5-6.1-5-6.3s-0.8-6-6.4-7.9c-5.5-1.9-10.2,2.1-10.4,2.3c0,0-3.9,3.3-8.4,1.9
	c-3.7-1.2-4.7-4.7-5-5.9c0.1-0.2,0.2-0.4,0.1-0.6c0-0.2-0.8-6-6.4-7.9c-5.5-1.9-10.2,2.1-10.4,2.3c0,0-3.9,3.3-8.4,1.9
	c-4.3-1.5-5-6.1-5-6.3c-0.1-0.5-0.6-0.9-1.1-0.9c-0.5,0.1-0.9,0.6-0.9,1.1c0,0.2,0.8,6,6.4,7.9c5.6,1.8,10.2-2.1,10.4-2.3
	c0,0,4-3.4,8.4-1.9c3.7,1.2,4.7,4.7,5,5.9c-0.1,0.2-0.2,0.4-0.1,0.6c0,0.2,0.8,6,6.4,7.9c5.6,1.8,10.2-2.1,10.4-2.3
	c0,0,4-3.4,8.4-1.9c4.3,1.5,5,6.1,5,6.3l0,0c0,0.2,0.8,6,6.4,7.9c0.1,0,0.2,0.1,0.3,0.1c0.4,0,0.8-0.3,0.9-0.7
	C513.2,1005.6,512.9,1005,512.4,1004.9z"/>
<path class="st0" d="M1851.4,255.8c-4.9,0-8.8,3.7-8.8,8.2s3.9,8.2,8.8,8.2s8.8-3.7,8.8-8.2S1856.3,255.8,1851.4,255.8z
	 M1851.4,270.2c-3.8,0-6.8-2.8-6.8-6.2s3.1-6.2,6.8-6.2c3.7,0,6.8,2.8,6.8,6.2S1855.1,270.2,1851.4,270.2z"/>
<path class="st0" d="M934.3,148.3c-0.4-0.4-1-0.5-1.4-0.1l-4.9,4.3l-4.7-4.5c-0.4-0.4-1-0.4-1.4,0s-0.4,1,0,1.4l4.6,4.4l-4.8,4.2
	c-0.4,0.4-0.5,1-0.1,1.4c0.2,0.2,0.5,0.3,0.7,0.3s0.5-0.1,0.7-0.3l4.9-4.3l4.7,4.5c0.2,0.2,0.4,0.3,0.7,0.3s0.5-0.1,0.7-0.3
	c0.4-0.4,0.4-1,0-1.4l-4.6-4.4l4.8-4.2C934.7,149.4,934.7,148.8,934.3,148.3z"/>
<path class="st0" d="M807.4,160.2c-0.4-0.1-0.8,0-1,0.3c-0.2,0.2-15.9,19-16.8,20c-0.3,0.3-0.4,0.8-0.1,1.2c0.2,0.3,0.3,0.6,1.8,0.6
	c2.1,0,7-0.5,18.5-2.3c0.5-0.1,0.9-0.6,0.8-1.1l-2.4-17.8C808,160.7,807.8,160.3,807.4,160.2z M792.4,180.3
	c3.1-3.7,10.8-12.9,14-16.7l2,14.6C802.9,179,795.7,180,792.4,180.3z"/>
<path class="st0" d="M1854.9,909.4c-0.2-0.5-0.8-0.8-1.3-0.6s-0.8,0.8-0.6,1.3l5.2,13.5c0.2,0.4,0.5,0.6,0.9,0.6
	c0.1,0,0.2,0,0.4-0.1c0.5-0.2,0.8-0.8,0.6-1.3L1854.9,909.4z"/>
<path class="st0" d="M1115.2,115.2c0,0,4-3.3,8.5-1.9c4.4,1.4,5,6.1,5,6.3c0.1,0.5,0.5,0.9,1,0.9h0.1c0.5-0.1,0.9-0.6,0.9-1.1
	c0-0.3-0.7-6.2-6.4-7.9c-5.6-1.7-10.2,2.1-10.4,2.3c0,0-4.1,3.4-8.4,1.9c-3.7-1.2-4.7-4.7-5-5.9c0.1-0.2,0.2-0.4,0.1-0.6
	c0-0.2-0.8-6-6.4-7.9c-5.6-1.7-10.2,2.1-10.4,2.3c0,0-4.1,3.4-8.4,1.9s-5-6-5-6.3l0,0c0-0.2-0.8-6-6.4-7.9c-0.5-0.2-1.1,0.1-1.3,0.6
	c-0.2,0.5,0.1,1.1,0.6,1.3c4.3,1.5,5,6.1,5,6.3c0,0.2,0.8,6,6.4,7.9c5.5,1.9,10.2-2.1,10.4-2.3c0,0,4-3.3,8.4-1.9
	c3.7,1.2,4.7,4.7,5,5.9c-0.1,0.2-0.2,0.4-0.1,0.6c0,0.2,0.8,6,6.4,7.9C1110.4,119.3,1115.1,115.3,1115.2,115.2z"/>
</svg>
