<svg enable-background="new 0 0 1920 1080" viewBox="0 0 1920 1080" xmlns="http://www.w3.org/2000/svg"><g fill="#7e909e"><path d="m539.9 391.8c-4.9 0-8.8 3.7-8.8 8.2s3.9 8.2 8.8 8.2 8.8-3.7 8.8-8.2-3.9-8.2-8.8-8.2zm0 14.4c-3.7 0-6.8-2.8-6.8-6.2s3.1-6.2 6.8-6.2 6.8 2.8 6.8 6.2-3.1 6.2-6.8 6.2z" opacity=".5"/><path d="m568 581.2c-.4-.4-1-.5-1.4-.1l-4.9 4.3-4.7-4.4c-.4-.4-1-.4-1.4 0s-.4 1 0 1.4l4.6 4.4-4.8 4.2c-.4.4-.5 1-.1 1.4.2.2.5.3.7.3s.5-.1.7-.3l4.9-4.3 4.7 4.5c.2.2.4.3.7.3s.5-.1.7-.3c.4-.4.4-1 0-1.4l-4.6-4.4 4.8-4.2c.5-.3.5-.9.1-1.4z" opacity=".5"/><path d="m679.9 560.8c-.5.1-.9.6-.8 1.1l2.4 17.8c.1.4.3.7.7.8h.3c.3 0 .6-.1.8-.4.7-.8 16-19 16.8-20 .3-.3.4-.8.1-1.2-.4-.6-.7-1.1-20.3 1.9zm3.3 16.4-2-14.6c5.5-.8 12.7-1.8 16-2.1-3 3.7-10.8 12.9-14 16.7z" opacity=".5"/><path d="m392.1 386.2c.2.4.5.6.9.6.1 0 .2 0 .4-.1.5-.2.8-.8.6-1.3l-5.2-13.5c-.2-.5-.8-.8-1.3-.6s-.8.8-.6 1.3z" opacity=".5"/><path d="m426.2 647.8c-4.3-1.5-5-6.1-5-6.3s-.8-6-6.4-7.9c-5.5-1.9-10.2 2.1-10.4 2.3 0 0-4 3.3-8.4 1.9-3.7-1.2-4.7-4.7-5-5.9.1-.2.2-.4.1-.6 0-.2-.8-6-6.4-7.9-5.5-1.9-10.2 2.1-10.4 2.3 0 0-4 3.3-8.4 1.9-4.3-1.5-5-6.1-5-6.3-.1-.5-.6-.9-1.1-.9-.5.1-.9.6-.9 1.1 0 .2.8 6 6.4 7.9 5.6 1.7 10.2-2.1 10.4-2.3 0 0 4-3.4 8.4-1.9 3.7 1.2 4.7 4.7 5 5.9-.1.2-.2.4-.1.6 0 .2.8 6 6.4 7.9 5.6 1.7 10.2-2.1 10.4-2.3 0 0 4-3.4 8.4-1.9 4.3 1.5 5 6.1 5 6.3 0 .2.8 6 6.4 7.9.1 0 .2.1.3.1.4 0 .8-.3.9-.7.2-.5-.1-1.1-.6-1.2z" opacity=".5"/><path d="m96.6 263.6c-.4-.4-1-.4-1.4 0l-4.4 4.7-4.3-4.9c-.4-.4-1-.5-1.4-.1s-.5 1-.1 1.4l4.4 5-4.5 4.8c-.4.4-.4 1 0 1.4.2.2.4.3.7.3s.5-.1.7-.3l4.4-4.6 4.3 4.8c.2.2.5.3.7.3s.5-.1.7-.3c.4-.4.5-1 .1-1.4l-4.4-4.9 4.5-4.8c.4-.4.4-1 0-1.4z" opacity=".5"/><path d="m115.6 387.2-17.8 2.4c-.4.1-.7.3-.8.7s0 .8.3 1c.2.2 19.1 16 20 16.8.2.2.5.3.7.3s.3 0 .5-.1c.7-.4 1.3-.7-1.8-20.2-.1-.6-.6-1-1.1-.9zm-15.3 4.1 14.6-2c.8 5.5 1.8 12.6 2.1 16-3.7-3.1-12.9-10.8-16.7-14z" opacity=".5"/><path d="m304.8 95-13.5 5.1c-.5.2-.8.8-.6 1.3.2.4.5.6.9.6.1 0 .2 0 .4-.1l13.5-5.1c.5-.2.8-.8.6-1.3s-.7-.7-1.3-.5z" opacity=".5"/><path d="m56.1 67.1c-.3 0-6.2.7-7.9 6.4-1.7 5.6 2.1 10.2 2.3 10.4 0 0 3.3 3.9 1.8 8.3-1.3 3.8-5 4.8-6 5-.1 0-.3-.1-.4-.1-.3 0-6.2.7-7.9 6.4-1.7 5.6 2.1 10.2 2.3 10.4 0 0 3.4 4 1.9 8.4-1.2 3.7-4.7 4.7-5.9 5-.1 0-.3 0-.4 0-.2 0-6 .8-7.9 6.4-.2.5.1 1.1.6 1.3.1 0 .2.1.3.1.4 0 .8-.3.9-.7 1.3-3.7 4.8-4.7 5.9-5h.2.1c.2 0 6-.8 7.9-6.4 1.9-5.5-2.1-10.2-2.3-10.4 0 0-3.3-3.9-1.9-8.4 1.2-3.9 5-4.8 6-5 .1 0 .2.1.4.1h.1c.2 0 6-.8 7.9-6.4 1.9-5.5-2-10.1-2.2-10.3 0 0-3.3-3.9-1.9-8.4 1.4-4.4 6.1-5 6.3-5 .5-.1.9-.6.9-1.1-.1-.7-.6-1.1-1.1-1z" opacity=".5"/><path d="m1441.6 119c-4.9 0-8.8 3.7-8.8 8.2s3.9 8.2 8.8 8.2 8.8-3.7 8.8-8.2-3.9-8.2-8.8-8.2zm0 14.4c-3.7 0-6.8-2.8-6.8-6.2s3.1-6.2 6.8-6.2c3.8 0 6.8 2.8 6.8 6.2s-3.1 6.2-6.8 6.2z" opacity=".5"/><path d="m1469.8 308.4c-.4-.4-1-.5-1.4-.1l-4.9 4.3-4.7-4.5c-.4-.4-1-.4-1.4 0s-.4 1 0 1.4l4.6 4.4-4.9 4.3c-.4.4-.5 1-.1 1.4.2.2.5.3.8.3.2 0 .5-.1.7-.2l5-4.4 4.8 4.5c.2.2.4.3.7.3s.5-.1.7-.3c.4-.4.4-1 0-1.4l-4.6-4.4 4.8-4.2c.2-.3.2-.9-.1-1.4z" opacity=".5"/><path d="m1581.6 288.1c-.5.1-.9.6-.8 1.1l2.4 17.8c.1.4.3.7.7.8h.3c.3 0 .6-.1.8-.4.2-.2 15.9-19 16.8-20 .3-.3.4-.8.1-1.2-.4-.6-.7-1.1-20.3 1.9zm3.3 16.4-2-14.6c5.5-.8 12.6-1.8 16-2.1-3.1 3.7-10.8 12.9-14 16.7z" opacity=".5"/><path d="m1293.8 113.5c.2.4.5.6.9.6.1 0 .2 0 .4-.1.5-.2.8-.8.6-1.3l-5.2-13.5c-.2-.5-.8-.8-1.3-.6s-.8.8-.6 1.3z" opacity=".5"/><path d="m1327.8 375.1c-3.7-1.3-4.7-4.9-5-6 0-.1.1-.3 0-.4 0-.2-.8-6-6.4-7.9-5.5-1.9-10.2 2.1-10.4 2.3 0 0-4 3.3-8.4 1.9-3.7-1.3-4.7-4.9-5-6 0-.1.1-.3 0-.4 0-.2-.8-6-6.4-7.9-5.5-1.9-10.2 2.1-10.4 2.3 0 0-3.9 3.3-8.4 1.9-4.3-1.5-5-6.1-5-6.3-.1-.5-.6-.9-1.1-.9-.5.1-.9.6-.9 1.1 0 .2.8 6 6.4 7.9 5.6 1.7 10.2-2.1 10.4-2.3 0 0 4-3.4 8.4-1.9 3.7 1.3 4.7 4.9 5 6 0 .1-.1.3 0 .4 0 .2.8 6 6.4 7.9 5.6 1.7 10.2-2.1 10.4-2.3 0 0 4.1-3.4 8.4-1.9 3.7 1.3 4.7 4.9 5 6 0 .1-.1.3 0 .4 0 .2.8 6 6.4 7.9.1 0 .2.1.3.1.4 0 .8-.3.9-.7.2-.5-.1-1.1-.6-1.2z" opacity=".5"/><path d="m1623.4 777.3c-.4-.4-1-.4-1.4 0l-4.4 4.6-4.3-4.9c-.4-.4-1-.5-1.4-.1s-.5 1-.1 1.4l4.4 5-4.5 4.8c-.4.4-.4 1 0 1.4.2.2.4.3.7.3s.5-.1.7-.3l4.4-4.6 4.2 4.8c.2.2.5.3.8.3.2 0 .5-.1.7-.2.4-.4.5-1 .1-1.4l-4.3-4.9 4.5-4.7c.3-.5.3-1.1-.1-1.5z" opacity=".5"/><path d="m1642.4 900.8-17.8 2.4c-.4.1-.7.3-.8.7s0 .8.3 1c.8.7 19 16 20 16.8.2.2.5.3.7.3s.3 0 .5-.1c.7-.4 1.3-.7-1.8-20.2-.1-.6-.6-1-1.1-.9zm-15.3 4.1 14.6-2c1 6.2 1.9 12.9 2.1 16-3.7-3-12.9-10.8-16.7-14z" opacity=".5"/><path d="m1831.6 608.6-13.5 5.2c-.5.2-.8.8-.6 1.3.2.4.5.6.9.6.1 0 .2 0 .4-.1l13.5-5.2c.5-.2.8-.8.6-1.3s-.7-.7-1.3-.5z" opacity=".5"/><path d="m1582.8 580.6c-.3 0-6.2.7-7.9 6.4-1.7 5.6 2.1 10.2 2.3 10.4 0 0 3.4 4 1.9 8.4-1.3 3.7-4.9 4.7-6 5-.1 0-.3-.1-.4 0-.2 0-6 .8-7.9 6.4-1.7 5.6 2.1 10.2 2.3 10.4 0 0 3.4 4 1.9 8.4-1.3 3.7-4.9 4.7-6 5-.1 0-.3-.1-.4 0-.2 0-6 .8-7.9 6.4-.2.5.1 1.1.6 1.3.1 0 .2.1.3.1.4 0 .8-.3.9-.7 1.3-3.7 4.9-4.7 6-5 .1 0 .2.1.3.1h.1c.2 0 6-.8 7.9-6.4 1.9-5.5-2.1-10.2-2.3-10.4 0 0-3.3-4-1.9-8.4 1.3-3.7 4.9-4.8 6-5 .1 0 .2.1.3.1h.1c.2 0 6-.8 7.9-6.4 1.9-5.5-2.1-10.2-2.3-10.4 0 0-3.3-3.9-1.9-8.4 1.4-4.4 6.1-5 6.3-5 .5-.1.9-.6.9-1.1-.1-.9-.6-1.3-1.1-1.2z" opacity=".5"/><path d="m1080.8 882.9c-4.9 0-8.8 3.7-8.8 8.2s3.9 8.2 8.8 8.2 8.8-3.7 8.8-8.2-3.9-8.2-8.8-8.2zm0 14.4c-3.7 0-6.8-2.8-6.8-6.2s3.1-6.2 6.8-6.2 6.8 2.8 6.8 6.2-3.1 6.2-6.8 6.2z" opacity=".5"/><path d="m1228.8 972c-.4-.4-1-.5-1.4-.1l-4.9 4.3-4.7-4.5c-.4-.4-1-.4-1.4 0s-.4 1 0 1.4l4.6 4.4-4.8 4.2c-.4.4-.5 1-.1 1.4.2.2.5.3.7.3s.5-.1.7-.3l4.9-4.3 4.7 4.5c.2.2.4.3.7.3s.5-.1.7-.3c.4-.4.4-1 0-1.4l-4.6-4.4 4.8-4.2c.5-.2.5-.8.1-1.3z" opacity=".5"/><path d="m1340.7 951.7c-.5.1-.9.6-.8 1.1l2.4 17.8c.1.4.3.7.7.8h.3c.3 0 .6-.1.8-.4.7-.8 16-19 16.8-20 .3-.3.4-.8.1-1.2-.4-.6-.7-1.1-20.3 1.9zm3.3 16.4-2-14.6c6.2-1 12.9-1.9 16-2.1-3 3.7-10.8 12.9-14 16.7z" opacity=".5"/><path d="m1052.9 777.1c.2.4.5.6.9.6.1 0 .2 0 .4-.1.5-.2.8-.8.6-1.3l-5.2-13.5c-.2-.5-.8-.8-1.3-.6s-.8.8-.6 1.3z" opacity=".5"/><path d="m1087 1038.7c-4.3-1.5-5-6.1-5-6.3v-.1c0-.2-.8-6-6.4-7.9-5.5-1.9-10.2 2.1-10.4 2.3 0 0-4 3.3-8.4 1.9-3.6-1.2-4.7-4.6-4.9-5.8.1-.2.1-.4.1-.6s-.8-6-6.4-7.9c-5.5-1.9-10.2 2.1-10.4 2.3 0 0-4 3.3-8.5 1.9-4.4-1.4-5-6.1-5-6.3-.1-.5-.6-.9-1.1-.9-.5.1-.9.6-.9 1.1 0 .3.7 6.2 6.4 7.9 5.6 1.7 10.2-2.1 10.4-2.3 0 0 4-3.4 8.4-1.9 3.6 1.2 4.7 4.6 4.9 5.8-.1.2-.1.4-.1.6s.8 6 6.4 7.9c5.6 1.8 10.2-2.1 10.4-2.3 0 0 4-3.4 8.4-1.9 4.3 1.5 5 6.1 5 6.3v.1c0 .2.8 6 6.4 7.9.1 0 .2.1.3.1.4 0 .8-.3.9-.7.3-.5 0-1.1-.5-1.2z" opacity=".5"/><path d="m1287 542.7c-4.9 0-8.8 3.7-8.8 8.2s3.9 8.2 8.8 8.2 8.8-3.7 8.8-8.2-3.9-8.2-8.8-8.2zm0 14.4c-3.7 0-6.8-2.8-6.8-6.2s3.1-6.2 6.8-6.2 6.8 2.8 6.8 6.2-3.1 6.2-6.8 6.2z" opacity=".5"/><path d="m1315 732.1c-.4-.4-1-.5-1.4-.1l-4.9 4.3-4.7-4.5c-.4-.4-1-.4-1.4 0s-.4 1 0 1.4l4.6 4.4-4.8 4.2c-.4.4-.5 1-.1 1.4.2.2.5.3.7.3s.5-.1.7-.3l4.9-4.3 4.7 4.5c.2.2.4.3.7.3s.5-.1.7-.3c.4-.4.4-1 0-1.4l-4.6-4.4 4.8-4.2c.5-.2.5-.8.1-1.3z" opacity=".5"/><path d="m1426.9 711.7c-.5.1-.9.6-.8 1.1l2.4 17.8c.1.4.3.7.7.8h.3c.3 0 .6-.1.8-.4.2-.2 16-19.1 16.8-20 .3-.3.3-.8.1-1.2-.4-.6-.7-1.1-20.3 1.9zm3.3 16.4-2-14.6c5.5-.8 12.7-1.8 16-2.1-3.1 3.7-10.8 12.9-14 16.7z" opacity=".5"/><path d="m1139.1 537.1c.2.4.5.6.9.6.1 0 .2 0 .4-.1.5-.2.8-.8.6-1.3l-5.2-13.5c-.2-.5-.8-.8-1.3-.6s-.8.8-.6 1.3z" opacity=".5"/><path d="m1173.2 798.7c-4.3-1.5-5-6.1-5-6.3 0-.2-.8-6-6.4-7.9-5.5-1.9-10.2 2.1-10.4 2.3 0 0-4 3.3-8.5 1.9-3.7-1.2-4.7-4.7-4.9-5.9.1-.2.2-.4.1-.6 0-.2-.8-6-6.4-7.9-5.5-1.9-10.2 2.1-10.4 2.3 0 0-3.9 3.3-8.4 1.9-4.4-1.4-5-6.1-5-6.3-.1-.5-.6-.9-1.1-.9-.5.1-.9.6-.9 1.1 0 .3.7 6.2 6.4 7.9 5.6 1.7 10.2-2.1 10.4-2.3 0 0 4-3.4 8.4-1.9 3.7 1.2 4.7 4.7 5 5.9-.1.2-.2.4-.1.6 0 .3.7 6.2 6.4 7.9 5.6 1.8 10.2-2.1 10.4-2.3 0 0 4-3.4 8.4-1.9 4.3 1.5 5 6 5 6.3 0 .2.8 6 6.4 7.9.1 0 .2.1.3.1.4 0 .8-.3.9-.7.2-.5-.1-1.1-.6-1.2z" opacity=".5"/><path d="m85.4 852.9c-4.9 0-8.8 3.7-8.8 8.2s3.9 8.2 8.8 8.2 8.8-3.7 8.8-8.2-3.9-8.2-8.8-8.2zm0 14.4c-3.7 0-6.8-2.8-6.8-6.2s3.1-6.2 6.8-6.2 6.8 2.8 6.8 6.2-3.1 6.2-6.8 6.2z" opacity=".5"/><path d="m1858.4 101.3 4.8-4.3c.4-.4.4-1 .1-1.4-.4-.4-1-.4-1.4-.1l-4.9 4.4-4.7-4.5c-.4-.4-1-.4-1.4 0s-.4 1 0 1.4l4.6 4.4-4.8 4.3c-.4.4-.4 1-.1 1.4.2.2.5.3.7.3s.5-.1.7-.3l4.9-4.4 4.8 4.5c.2.2.4.3.7.3s.5-.1.7-.3c.4-.4.4-1 0-1.4z" opacity=".5"/><path d="m156 902.9c-.5.1-.9.6-.8 1.1l2.4 17.8c.1.4.3.7.7.8h.3c.3 0 .6-.1.8-.4.7-.8 16-19 16.8-20 .3-.3.4-.8.1-1.2-.4-.6-.7-1.1-20.3 1.9zm3.3 16.4-2-14.6c6.2-1 12.9-1.9 16-2.1-3 3.7-10.8 12.9-14 16.7z" opacity=".5"/><path d="m162.5 656.2c.2.4.5.6.9.6.1 0 .2 0 .4-.1.5-.2.8-.8.6-1.3l-5.2-13.5c-.2-.5-.8-.8-1.3-.6s-.8.8-.6 1.3z" opacity=".5"/><path d="m1721.5 162.3c-4.3-1.5-5-6.1-5-6.3s-.8-6-6.4-7.9c-5.5-1.9-10.2 2.1-10.4 2.3 0 0-4 3.3-8.4 1.9-3.7-1.2-4.7-4.7-5-5.9.1-.2.2-.4.1-.6 0-.2-.8-6-6.4-7.9-5.5-1.9-10.2 2.1-10.4 2.3 0 0-4 3.3-8.4 1.9-4.3-1.5-5-6.1-5-6.3-.1-.5-.6-.9-1.1-.9-.5.1-.9.6-.9 1.1 0 .2.8 6 6.4 7.9 5.6 1.7 10.2-2.1 10.4-2.3 0 0 4-3.4 8.4-1.9 3.7 1.2 4.7 4.7 5 5.9-.1.2-.2.4-.1.6 0 .2.8 6 6.4 7.9 5.6 1.7 10.2-2.1 10.4-2.3 0 0 4-3.4 8.4-1.9 4.3 1.5 5 6 5 6.3 0 .2.8 6 6.4 7.9.1 0 .2.1.3.1.4 0 .8-.3.9-.7.2-.5-.1-1.1-.6-1.2z" opacity=".5"/><path d="m405 875.4c-4.9 0-8.8 3.7-8.8 8.2s3.9 8.2 8.8 8.2 8.8-3.7 8.8-8.2-3.9-8.2-8.8-8.2zm0 14.4c-3.7 0-6.8-2.8-6.8-6.2s3.1-6.2 6.8-6.2 6.8 2.8 6.8 6.2-3.1 6.2-6.8 6.2z" opacity=".5"/><path d="m654.4 938.3c-.4-.4-1-.5-1.4-.1l-5 4.4-4.8-4.5c-.4-.4-1-.4-1.4 0s-.4 1 0 1.4l4.6 4.4-4.8 4.2c-.4.4-.5 1-.1 1.4.2.2.5.3.8.3.2 0 .5-.1.7-.2l4.9-4.3 4.7 4.5c.2.2.4.3.7.3s.5-.1.7-.3c.4-.4.4-1 0-1.4l-4.6-4.4 4.9-4.3c.4-.3.4-.9.1-1.4z" opacity=".5"/><path d="m766.2 917.9c-.5.1-.9.6-.8 1.1l2.4 17.8c.1.4.3.7.7.8h.3c.3 0 .6-.1.8-.4.2-.2 15.9-19 16.8-20 .3-.3.4-.8.1-1.2-.4-.6-.7-1.1-20.3 1.9zm3.3 16.4-2-14.6c5.5-.8 12.6-1.8 16-2.1-3.1 3.7-10.8 12.9-14 16.7z" opacity=".5"/><path d="m478.3 743.3c.2.4.5.6.9.6.1 0 .2 0 .4-.1.5-.2.8-.8.6-1.3l-5.2-13.5c-.2-.5-.8-.8-1.3-.6s-.8.8-.6 1.3z" opacity=".5"/><path d="m512.4 1004.9c-4.3-1.5-5-6.1-5-6.3s-.8-6-6.4-7.9c-5.5-1.9-10.2 2.1-10.4 2.3 0 0-3.9 3.3-8.4 1.9-3.7-1.2-4.7-4.7-5-5.9.1-.2.2-.4.1-.6 0-.2-.8-6-6.4-7.9-5.5-1.9-10.2 2.1-10.4 2.3 0 0-3.9 3.3-8.4 1.9-4.3-1.5-5-6.1-5-6.3-.1-.5-.6-.9-1.1-.9-.5.1-.9.6-.9 1.1 0 .2.8 6 6.4 7.9 5.6 1.8 10.2-2.1 10.4-2.3 0 0 4-3.4 8.4-1.9 3.7 1.2 4.7 4.7 5 5.9-.1.2-.2.4-.1.6 0 .2.8 6 6.4 7.9 5.6 1.8 10.2-2.1 10.4-2.3 0 0 4-3.4 8.4-1.9 4.3 1.5 5 6.1 5 6.3 0 .2.8 6 6.4 7.9.1 0 .2.1.3.1.4 0 .8-.3.9-.7.2-.5-.1-1.1-.6-1.2z" opacity=".5"/><path d="m1851.4 255.8c-4.9 0-8.8 3.7-8.8 8.2s3.9 8.2 8.8 8.2 8.8-3.7 8.8-8.2-3.9-8.2-8.8-8.2zm0 14.4c-3.8 0-6.8-2.8-6.8-6.2s3.1-6.2 6.8-6.2 6.8 2.8 6.8 6.2-3.1 6.2-6.8 6.2z" opacity=".5"/><path d="m934.3 148.3c-.4-.4-1-.5-1.4-.1l-4.9 4.3-4.7-4.5c-.4-.4-1-.4-1.4 0s-.4 1 0 1.4l4.6 4.4-4.8 4.2c-.4.4-.5 1-.1 1.4.2.2.5.3.7.3s.5-.1.7-.3l4.9-4.3 4.7 4.5c.2.2.4.3.7.3s.5-.1.7-.3c.4-.4.4-1 0-1.4l-4.6-4.4 4.8-4.2c.5-.2.5-.8.1-1.3z" opacity=".5"/><path d="m807.4 160.2c-.4-.1-.8 0-1 .3-.2.2-15.9 19-16.8 20-.3.3-.4.8-.1 1.2.2.3.3.6 1.8.6 2.1 0 7-.5 18.5-2.3.5-.1.9-.6.8-1.1l-2.4-17.8c-.2-.4-.4-.8-.8-.9zm-15 20.1c3.1-3.7 10.8-12.9 14-16.7l2 14.6c-5.5.8-12.7 1.8-16 2.1z" opacity=".5"/><path d="m1854.9 909.4c-.2-.5-.8-.8-1.3-.6s-.8.8-.6 1.3l5.2 13.5c.2.4.5.6.9.6.1 0 .2 0 .4-.1.5-.2.8-.8.6-1.3z" opacity=".5"/><path d="m1115.2 115.2s4-3.3 8.5-1.9c4.4 1.4 5 6.1 5 6.3.1.5.5.9 1 .9h.1c.5-.1.9-.6.9-1.1 0-.3-.7-6.2-6.4-7.9-5.6-1.7-10.2 2.1-10.4 2.3 0 0-4.1 3.4-8.4 1.9-3.7-1.2-4.7-4.7-5-5.9.1-.2.2-.4.1-.6 0-.2-.8-6-6.4-7.9-5.6-1.7-10.2 2.1-10.4 2.3 0 0-4.1 3.4-8.4 1.9s-5-6-5-6.3c0-.2-.8-6-6.4-7.9-.5-.2-1.1.1-1.3.6s.1 1.1.6 1.3c4.3 1.5 5 6.1 5 6.3s.8 6 6.4 7.9c5.5 1.9 10.2-2.1 10.4-2.3 0 0 4-3.3 8.4-1.9 3.7 1.2 4.7 4.7 5 5.9-.1.2-.2.4-.1.6 0 .2.8 6 6.4 7.9 5.6 1.7 10.3-2.3 10.4-2.4z" opacity=".5"/></g></svg>