<?xml version="1.0" encoding="iso-8859-1"?>
<!-- Generator: Adobe Illustrator 16.0.0, SVG Export Plug-In . SVG Version: 6.00 Build 0)  -->
<!DOCTYPE svg PUBLIC "-//W3C//DTD SVG 1.1//EN" "http://www.w3.org/Graphics/SVG/1.1/DTD/svg11.dtd">
<svg version="1.1" id="Capa_1" xmlns="http://www.w3.org/2000/svg" xmlns:xlink="http://www.w3.org/1999/xlink" x="0px" y="0px"
	 width="611.995px" height="611.996px" viewBox="0 0 611.995 611.996" fill="white"
	 xml:space="preserve">
		<g>
			<path d="M539.777,593.49h-60.649c-39.825,0-72.217-32.402-72.217-72.222v-13.641c0-24.631-20.043-44.668-44.67-44.668h-112.5
				c-24.627,0-44.664,20.041-44.664,44.668v13.641c0,39.824-32.397,72.222-72.222,72.222H72.217C32.397,593.49,0,561.087,0,521.263
				V259.827c0-39.825,32.397-72.217,72.217-72.217h467.562c39.825,0,72.217,32.397,72.217,72.217v261.436
				C612,561.087,579.604,593.49,539.777,593.49z M249.742,435.402h112.495c39.825,0,72.222,32.401,72.222,72.223v13.639
				c0,24.633,20.037,44.668,44.664,44.668h60.65c24.627,0,44.662-20.041,44.662-44.668V259.827
				c0-24.632-20.035-44.664-44.662-44.664H72.217c-24.627,0-44.664,20.031-44.664,44.664v261.436
				c0,24.633,20.037,44.668,44.664,44.668h60.634c24.632,0,44.669-20.041,44.669-44.668v-13.635
				C177.525,467.804,209.922,435.402,249.742,435.402z"/>
			<g>
				<path d="M154.474,403.291c-38.211,0-69.296-31.09-69.296-69.295c0-38.206,31.085-69.297,69.296-69.297
					s69.296,31.091,69.296,69.297C223.771,372.201,192.685,403.291,154.474,403.291z M154.474,292.252
					c-23.018,0-41.743,18.724-41.743,41.744c0,23.018,18.725,41.742,41.743,41.742s41.743-18.726,41.743-41.742
					C196.217,310.976,177.492,292.252,154.474,292.252z"/>
				<g>
					<g>
						<path d="M462.045,322.064c-7.61,0-13.777-6.166-13.777-13.774v-26.893c0-7.61,6.167-13.777,13.777-13.777
							c7.609,0,13.776,6.167,13.776,13.777v26.893C475.821,315.898,469.654,322.064,462.045,322.064z"/>
						<path d="M462.045,400.371c-7.61,0-13.777-6.166-13.777-13.777v-26.891c0-7.611,6.167-13.777,13.777-13.777
							c7.609,0,13.776,6.166,13.776,13.777v26.891C475.821,394.205,469.654,400.371,462.045,400.371z"/>
					</g>
					<g>
						<path d="M437.958,347.771h-26.897c-7.609,0-13.776-6.166-13.776-13.774c0-7.611,6.167-13.777,13.776-13.777h26.897
							c7.609,0,13.776,6.166,13.776,13.777C451.734,341.605,445.562,347.771,437.958,347.771z"/>
						<path d="M513.034,347.771h-26.897c-7.608,0-13.775-6.166-13.775-13.774c0-7.611,6.167-13.777,13.775-13.777h26.897
							c7.609,0,13.776,6.166,13.776,13.777C526.812,341.605,520.639,347.771,513.034,347.771z"/>
					</g>
				</g>
			</g>
			<path d="M305.995,215.164c-7.61,0-13.777-6.167-13.777-13.777V32.282c0-7.61,6.167-13.777,13.777-13.777
				s13.777,6.167,13.777,13.777v169.104C319.771,208.991,313.604,215.164,305.995,215.164z"/>
		</g>
</svg>
