<svg fill="#fff" height="611.996" width="611.995" xmlns="http://www.w3.org/2000/svg"><path d="m539.777 593.49h-60.649c-39.825 0-72.217-32.402-72.217-72.222v-13.641c0-24.631-20.043-44.668-44.67-44.668h-112.5c-24.627 0-44.664 20.041-44.664 44.668v13.641c0 39.824-32.397 72.222-72.222 72.222h-60.638c-39.82 0-72.217-32.403-72.217-72.227v-261.436c0-39.825 32.397-72.217 72.217-72.217h467.562c39.825 0 72.217 32.397 72.217 72.217v261.436c.004 39.824-32.392 72.227-72.219 72.227zm-290.035-158.088h112.495c39.825 0 72.222 32.401 72.222 72.223v13.639c0 24.633 20.037 44.668 44.664 44.668h60.65c24.627 0 44.662-20.041 44.662-44.668v-261.437c0-24.632-20.035-44.664-44.662-44.664h-467.556c-24.627 0-44.664 20.031-44.664 44.664v261.436c0 24.633 20.037 44.668 44.664 44.668h60.634c24.632 0 44.669-20.041 44.669-44.668v-13.635c.005-39.824 32.402-72.226 72.222-72.226z"/><path d="m154.474 403.291c-38.211 0-69.296-31.09-69.296-69.295 0-38.206 31.085-69.297 69.296-69.297s69.296 31.091 69.296 69.297c.001 38.205-31.085 69.295-69.296 69.295zm0-111.039c-23.018 0-41.743 18.724-41.743 41.744 0 23.018 18.725 41.742 41.743 41.742s41.743-18.726 41.743-41.742c0-23.02-18.725-41.744-41.743-41.744zm307.571 29.812c-7.61 0-13.777-6.166-13.777-13.774v-26.893c0-7.61 6.167-13.777 13.777-13.777 7.609 0 13.776 6.167 13.776 13.777v26.893c0 7.608-6.167 13.774-13.776 13.774zm0 78.307c-7.61 0-13.777-6.166-13.777-13.777v-26.891c0-7.611 6.167-13.777 13.777-13.777 7.609 0 13.776 6.166 13.776 13.777v26.891c0 7.611-6.167 13.777-13.776 13.777z"/><path d="m437.958 347.771h-26.897c-7.609 0-13.776-6.166-13.776-13.774 0-7.611 6.167-13.777 13.776-13.777h26.897c7.609 0 13.776 6.166 13.776 13.777 0 7.608-6.172 13.774-13.776 13.774zm75.076 0h-26.897c-7.608 0-13.775-6.166-13.775-13.774 0-7.611 6.167-13.777 13.775-13.777h26.897c7.609 0 13.776 6.166 13.776 13.777.002 7.608-6.171 13.774-13.776 13.774z"/><path d="m305.995 215.164c-7.61 0-13.777-6.167-13.777-13.777v-169.105c0-7.61 6.167-13.777 13.777-13.777s13.777 6.167 13.777 13.777v169.104c-.001 7.605-6.168 13.778-13.777 13.778z"/></svg>