<svg class="page-header__icon-home" width="50" height="50" fill="#fff" stroke="#fff" viewBox="0 0 66 66" xmlns="http://www.w3.org/2000/svg"><path d="M33.96 38.32v10.47c0 1.36 1.1 2.46 2.46 2.46H48.8c1.36 0 2.46-1.1 2.46-2.46V38.32c0-1.36-1.1-2.46-2.46-2.46H36.43c-1.36 0-2.47 1.1-2.47 2.46zm2.47-1.46h5.69v6.2h-7.16v-4.74c0-.81.66-1.46 1.47-1.46zm-1.47 11.93v-4.74h7.16v6.2h-5.69c-.81.01-1.47-.65-1.47-1.46zm13.85 1.47h-5.69v-6.2h7.16v4.74c-.01.8-.66 1.46-1.47 1.46zm1.46-11.94v4.74h-7.16v-6.2h5.69c.82 0 1.47.65 1.47 1.46zM32.62 29.43a5.6 5.6 0 005.59-5.59c0-3.08-2.51-5.59-5.59-5.59s-5.59 2.51-5.59 5.59a5.6 5.6 0 005.59 5.59zm0-10.18c2.53 0 4.59 2.06 4.59 4.59s-2.06 4.59-4.59 4.59-4.59-2.06-4.59-4.59 2.06-4.59 4.59-4.59zM19.45 45.08a2.1 2.1 0 100 4.2 2.1 2.1 0 000-4.2zm0 3.2c-.61 0-1.1-.49-1.1-1.1s.49-1.1 1.1-1.1 1.1.49 1.1 1.1-.5 1.1-1.1 1.1z"/><path d="M64 62.9h-2.42v-3.13c0-1.51-1.23-2.73-2.73-2.73h-2.09V29.48l.66.51c.71.55 1.55.83 2.44.83a3.998 3.998 0 002.45-7.16L35.45 2.93a4.007 4.007 0 00-4.89 0l-11.78 9.09v-5.2h.92c.28 0 .5-.22.5-.5V2.6c0-.28-.22-.5-.5-.5H8.32c-.28 0-.5.22-.5.5v3.72c0 .28.22.5.5.5h.92v12.56l-5.55 4.28a3.999 3.999 0 104.89 6.33l.66-.51v27.55H7.16c-1.51 0-2.73 1.23-2.73 2.73v3.13H2c-.28 0-.5.22-.5.5s.22.5.5.5h62c.28 0 .5-.22.5-.5s-.22-.49-.5-.49zM8.82 3.1H19.2v2.72H8.82V3.1zm8.97 3.72v5.97l-7.54 5.82V6.82h7.54zM7.97 29.2c-1.31 1.01-3.2.77-4.21-.54-1.01-1.31-.76-3.2.54-4.21L31.17 3.72c1.08-.83 2.59-.83 3.67 0L61.7 24.45c1.31 1.01 1.55 2.9.54 4.21-.98 1.27-2.93 1.52-4.21.54L33.31 10.12c-.09-.07-.2-.1-.31-.1s-.22.03-.31.1L9.44 28.07s0 0 0 0L7.97 29.2zm2.27-.49L33 11.15l22.75 17.56v28.33H29.99V38.38c0-1.39-1.13-2.52-2.52-2.52H17.01c-1.39 0-2.52 1.13-2.52 2.52v18.66h-4.25V28.71zm18.75 28.33h-13.5V38.38c0-.84.68-1.52 1.52-1.52h10.47c.84 0 1.52.68 1.52 1.52v18.66zM5.42 62.9v-3.13c0-.96.78-1.73 1.73-1.73h2.58s0 0 0 0H56.24s0 0 0 0h2.58c.96 0 1.73.78 1.73 1.73v3.13H5.42z"/></svg>