<svg fill="#fff" height="50" stroke="#fff" viewBox="0 0 66 66" width="50" xmlns="http://www.w3.org/2000/svg"><path d="m33.96 38.32v10.47c0 1.36 1.1 2.46 2.46 2.46h12.38c1.36 0 2.46-1.1 2.46-2.46v-10.47c0-1.36-1.1-2.46-2.46-2.46h-12.37c-1.36 0-2.47 1.1-2.47 2.46zm2.47-1.46h5.69v6.2h-7.16v-4.74c0-.81.66-1.46 1.47-1.46zm-1.47 11.93v-4.74h7.16v6.2h-5.69c-.81.01-1.47-.65-1.47-1.46zm13.85 1.47h-5.69v-6.2h7.16v4.74c-.01.8-.66 1.46-1.47 1.46zm1.46-11.94v4.74h-7.16v-6.2h5.69c.82 0 1.47.65 1.47 1.46zm-17.65-8.89a5.6 5.6 0 0 0 5.59-5.59c0-3.08-2.51-5.59-5.59-5.59s-5.59 2.51-5.59 5.59a5.6 5.6 0 0 0 5.59 5.59zm0-10.18c2.53 0 4.59 2.06 4.59 4.59s-2.06 4.59-4.59 4.59-4.59-2.06-4.59-4.59 2.06-4.59 4.59-4.59zm-13.17 25.83a2.1 2.1 0 1 0 0 4.2 2.1 2.1 0 0 0 0-4.2zm0 3.2c-.61 0-1.1-.49-1.1-1.1s.49-1.1 1.1-1.1 1.1.49 1.1 1.1-.5 1.1-1.1 1.1z"/><path d="m64 62.9h-2.42v-3.13c0-1.51-1.23-2.73-2.73-2.73h-2.09v-27.56l.66.51c.71.55 1.55.83 2.44.83a3.998 3.998 0 0 0 2.45-7.16l-26.86-20.73a4.007 4.007 0 0 0 -4.89 0l-11.78 9.09v-5.2h.92c.28 0 .5-.22.5-.5v-3.72c0-.28-.22-.5-.5-.5h-11.38c-.28 0-.5.22-.5.5v3.72c0 .28.22.5.5.5h.92v12.56l-5.55 4.28a3.999 3.999 0 1 0 4.89 6.33l.66-.51v27.55h-2.08c-1.51 0-2.73 1.23-2.73 2.73v3.13h-2.43c-.28 0-.5.22-.5.5s.22.5.5.5h62c.28 0 .5-.22.5-.5s-.22-.49-.5-.49zm-55.18-59.8h10.38v2.72h-10.38zm8.97 3.72v5.97l-7.54 5.82v-11.79zm-9.82 22.38c-1.31 1.01-3.2.77-4.21-.54s-.76-3.2.54-4.21l26.87-20.73c1.08-.83 2.59-.83 3.67 0l26.86 20.73c1.31 1.01 1.55 2.9.54 4.21-.98 1.27-2.93 1.52-4.21.54l-24.72-19.08c-.09-.07-.2-.1-.31-.1s-.22.03-.31.1l-23.25 17.95s0 0 0 0zm2.27-.49 22.76-17.56 22.75 17.56v28.33h-25.76v-18.66c0-1.39-1.13-2.52-2.52-2.52h-10.46c-1.39 0-2.52 1.13-2.52 2.52v18.66h-4.25zm18.75 28.33h-13.5v-18.66c0-.84.68-1.52 1.52-1.52h10.47c.84 0 1.52.68 1.52 1.52v18.66zm-23.57 5.86v-3.13c0-.96.78-1.73 1.73-1.73h2.58s0 0 0 0h46.51s0 0 0 0h2.58c.96 0 1.73.78 1.73 1.73v3.13z"/></svg>