<?xml version="1.0" ?>
<svg class="page-header__icon-home" width="50" height="50" fill="white" stroke="white" viewBox="0 0 66 66" xml:space="preserve" xmlns="http://www.w3.org/2000/svg" xmlns:xlink="http://www.w3.org/1999/xlink">
  <g>
    <path d="M33.96,38.32v10.47c0,1.36,1.1,2.46,2.46,2.46h12.38c1.36,0,2.46-1.1,2.46-2.46V38.32c0-1.36-1.1-2.46-2.46-2.46H36.43   C35.07,35.86,33.96,36.96,33.96,38.32z M36.43,36.86h5.69v6.2h-7.16v-4.74C34.96,37.51,35.62,36.86,36.43,36.86z M34.96,48.79   v-4.74h7.16v6.2h-5.69C35.62,50.26,34.96,49.6,34.96,48.79z M48.81,50.26h-5.69v-6.2h7.16v4.74C50.27,49.6,49.62,50.26,48.81,50.26   z M50.27,38.32v4.74h-7.16v-6.2h5.69C49.62,36.86,50.27,37.51,50.27,38.32z"/>
    <path d="M32.62,29.43c3.08,0,5.59-2.51,5.59-5.59c0-3.08-2.51-5.59-5.59-5.59s-5.59,2.51-5.59,5.59   C27.03,26.92,29.54,29.43,32.62,29.43z M32.62,19.25c2.53,0,4.59,2.06,4.59,4.59c0,2.53-2.06,4.59-4.59,4.59s-4.59-2.06-4.59-4.59   C28.03,21.31,30.09,19.25,32.62,19.25z"/>
    <path d="M19.45,45.08c-1.16,0-2.1,0.94-2.1,2.1s0.94,2.1,2.1,2.1s2.1-0.94,2.1-2.1S20.6,45.08,19.45,45.08z M19.45,48.28   c-0.61,0-1.1-0.49-1.1-1.1s0.49-1.1,1.1-1.1s1.1,0.49,1.1,1.1S20.05,48.28,19.45,48.28z"/>
    <path d="M64,62.9h-2.42v-3.13c0-1.51-1.23-2.73-2.73-2.73h-2.09V29.48l0.66,0.51c0.71,0.55,1.55,0.83,2.44,0.83   c1.25,0,2.41-0.57,3.17-1.55c1.35-1.75,1.03-4.26-0.72-5.61L35.45,2.93c-1.44-1.11-3.45-1.11-4.89,0l-11.78,9.09v-5.2h0.92   c0.28,0,0.5-0.22,0.5-0.5V2.6c0-0.28-0.22-0.5-0.5-0.5H8.32c-0.28,0-0.5,0.22-0.5,0.5v3.72c0,0.28,0.22,0.5,0.5,0.5h0.92v12.56   l-5.55,4.28c-1.75,1.35-2.07,3.87-0.72,5.61c1.35,1.75,3.87,2.07,5.61,0.72l0.66-0.51v27.55H7.16c-1.51,0-2.73,1.23-2.73,2.73v3.13   H2c-0.28,0-0.5,0.22-0.5,0.5s0.22,0.5,0.5,0.5h2.92h56.15H64c0.28,0,0.5-0.22,0.5-0.5S64.28,62.9,64,62.9z M8.82,3.1h10.38v2.72   h-0.92H9.74H8.82V3.1z M17.79,6.82v5.97l-7.54,5.82V6.82H17.79z M7.97,29.2c-1.31,1.01-3.2,0.77-4.21-0.54   C2.75,27.35,3,25.46,4.3,24.45L31.17,3.72c1.08-0.83,2.59-0.83,3.67,0L61.7,24.45c1.31,1.01,1.55,2.9,0.54,4.21   c-0.98,1.27-2.93,1.52-4.21,0.54L33.31,10.12c-0.09-0.07-0.2-0.1-0.31-0.1s-0.22,0.03-0.31,0.1L9.44,28.07c0,0,0,0,0,0L7.97,29.2z    M10.24,28.71L33,11.15l22.75,17.56v28.33H29.99V38.38c0-1.39-1.13-2.52-2.52-2.52H17.01c-1.39,0-2.52,1.13-2.52,2.52v18.66h-4.25   V28.71z M28.99,57.04h-13.5V38.38c0-0.84,0.68-1.52,1.52-1.52h10.47c0.84,0,1.52,0.68,1.52,1.52V57.04z M5.42,62.9v-3.13   c0-0.96,0.78-1.73,1.73-1.73h2.58c0,0,0,0,0,0h5.25h14.5h26.76c0,0,0,0,0,0h2.58c0.96,0,1.73,0.78,1.73,1.73v3.13H5.42z"/>
  </g>
</svg>
