<svg xmlns="http://www.w3.org/2000/svg" viewBox="0 0 1010 1010" fill="#fff"><path d="M1010 928.504H81.475V0h-36.7v928.504H0v36.741h44.775V1010h36.7v-44.755H1010z"/><path d="M399.812 465.588c-10.15 0-18.37 8.199-18.37 18.35v378.75c0 10.15 8.22 18.37 18.37 18.37h84.126c10.15 0 18.37-8.22 18.37-18.37v-378.75c0-10.151-8.22-18.35-18.37-18.35h-84.126zM189.375 633.9c-10.15 0-18.35 8.24-18.35 18.372v210.415c0 10.152 8.2 18.372 18.35 18.372h84.187c10.11 0 18.35-8.22 18.35-18.372V652.272c0-10.13-8.24-18.37-18.35-18.37h-84.187zM610.209 633.9c-10.13 0-18.35 8.24-18.35 18.372v210.415c0 10.152 8.22 18.372 18.35 18.372h84.166c10.15 0 18.37-8.22 18.37-18.372V652.272c0-10.13-8.22-18.37-18.37-18.37h-84.166zM820.625 423.504c-10.15 0-18.371 8.22-18.371 18.371v420.813c0 10.15 8.22 18.37 18.371 18.37h84.166c10.13 0 18.35-8.22 18.35-18.37V441.875c0-10.15-8.22-18.37-18.35-18.37h-84.166z"/><path d="M173.286 598.434c4.191 0 8.383-1.418 11.836-4.336l281.637-238.075 154.71 155.08c3.431 3.473 8.425 4.973 13.008 5.383 4.89-.02 9.575-1.95 13.027-5.424l256.034-258.254c7.151-7.192 7.07-18.843-.123-25.973-7.192-7.15-18.843-7.13-25.953.102L634.414 472.081l-153.6-153.95c-6.74-6.78-17.527-7.232-24.843-1.067L161.41 566.05c-7.768 6.555-8.713 18.143-2.158 25.891 3.617 4.294 8.815 6.493 14.035 6.493z"/></svg>