<svg enable-background="new 0 0 849.4 419.7" viewBox="0 0 849.4 419.7" xmlns="http://www.w3.org/2000/svg"><path d="m77.6 157.5c-7.3 5.4-17.7 3.7-23.1-3.6l-50.7-69.4c-5.4-7.3-3.7-17.7 3.6-23.1 7.3-5.4 17.7-3.7 23.1 3.6l50.7 69.4c5.3 7.4 3.7 17.8-3.6 23.1z" fill="#ffc107"/><path d="m425.7 76.7c-5.7 4.1-13.7 2.9-17.8-2.8l-39.2-53.7c-4.1-5.7-2.9-13.7 2.8-17.8 5.7-4.1 13.7-2.9 17.8 2.8l39.2 53.7c4.1 5.7 2.9 13.7-2.8 17.8z" fill="#2d1582"/><circle cx="727.5" cy="109.5" fill="#00c9a7" r="11.5"/><circle cx="14.5" cy="317.5" fill="#de4437" r="14.5"/><path d="m198.7 408.7c-5.7 4.1-13.7 2.9-17.8-2.8l-39.2-53.7c-4.1-5.7-2.9-13.7 2.8-17.8 5.7-4.1 13.7-2.9 17.8 2.8l39.2 53.7c4.1 5.7 2.9 13.7-2.8 17.8z" fill="#00dffc"/><path d="m842.6 416.5c-7.3 5.4-17.7 3.7-23.1-3.6l-50.7-69.4c-5.4-7.3-3.7-17.7 3.6-23.1 7.3-5.4 17.7-3.7 23.1 3.6l50.7 69.4c5.3 7.4 3.7 17.8-3.6 23.1z" fill="#ffc107"/></svg>