<svg enable-background="new 0 0 1689.8 974.4" viewBox="0 0 1689.8 974.4" xmlns="http://www.w3.org/2000/svg"><path d="m230.4 18.5-214.6 421.6 297.4 7.1 139.1-182z" fill="none" opacity=".05" stroke="#e7eaf3" stroke-miterlimit="10" stroke-width="3"/><path d="m15.8 440.1 53.7 286.3 246.4-57.7-2.7-221.5z" fill="none" opacity=".05" stroke="#e7eaf3" stroke-miterlimit="10" stroke-width="3"/><path d="m69.5 726.4-18.4 230.3 332.2 5.9-67.4-293.9z" fill="none" opacity=".05" stroke="#e7eaf3" stroke-miterlimit="10" stroke-width="3"/><path d="m383.3 962.6 108.7-176.8 140.5-25.1 81.4 164.2z" fill="none" opacity=".05" stroke="#e7eaf3" stroke-miterlimit="10" stroke-width="3"/><path d="m632.5 760.7 145.9-179.8-12.5-229.9-313.6-85.8 196.7-170.1 440.9-47-324 302.9-116.9-255.9" fill="none" opacity=".05" stroke="#e7eaf3" stroke-miterlimit="10" stroke-width="3"/><path d="m1479 151.6-171.6 252.3-59.2 240.4 140 116.4 288.9-144.4-198.1-464.7-389.1-103.5 217.5 355.8" fill="none" opacity=".05" stroke="#e7eaf3" stroke-miterlimit="10" stroke-width="3"/><path d="m765.9 351 310.6 320.2-74 158.4 385.7-68.9-140-116.4-171.7 26.9" fill="none" opacity=".05" stroke="#e7eaf3" stroke-miterlimit="10" stroke-width="3"/><g fill="#2679dd"><circle cx="765.9" cy="351" r="28.8"/><circle cx="649" cy="95.1" r="18.5"/><circle cx="452.3" cy="265.2" r="18.5"/><circle cx="313.2" cy="447.2" r="18.5"/><circle cx="230.4" cy="18.5" r="18.5"/><circle cx="15.8" cy="440.1" r="15.8"/><circle cx="315.9" cy="668.7" r="10"/><circle cx="69.5" cy="726.4" r="8.6"/><circle cx="51.1" cy="956.7" r="11.7"/><circle cx="383.3" cy="962.6" r="11.7"/><circle cx="492" cy="785.8" r="18.7"/><circle cx="632.5" cy="760.7" r="12.4"/><circle cx="713.9" cy="924.9" r="12.4"/><circle cx="778.4" cy="580.9" r="12.4"/><circle cx="1076.5" cy="671.2" r="15.7"/><circle cx="1002.5" cy="826.5" r="10.2"/><circle cx="1388.2" cy="760.7" r="17.3"/><circle cx="1248.2" cy="644.3" r="12.8"/><circle cx="1307.4" cy="403.9" r="17.7"/><circle cx="1479" cy="151.6" r="17.7"/><circle cx="1089.9" cy="48.1" r="12.5"/><circle cx="1677.1" cy="616.3" r="12.8"/></g></svg>