<svg enable-background="new 0 0 1506.3 578.7" viewBox="0 0 1506.3 578.7" xmlns="http://www.w3.org/2000/svg"><path d="m45 91.6c-1.2-1.2-1.2-3.1 0-4.3l9.1-9.1c1.2-1.2 3.1-1.2 4.3 0 1.2 1.2 1.2 3.1 0 4.3l-9.1 9.1c-1.1 1.2-3.1 1.2-4.3 0z" fill="#ffc107"/><path d="m58.4 91.6c-1.2 1.2-3.1 1.2-4.3 0l-9.1-9.1c-1.2-1.2-1.2-3.1 0-4.3 1.2-1.2 3.1-1.2 4.3 0l9.1 9.1c1.2 1.2 1.2 3.1 0 4.3z" fill="#ffc107"/><path d="m1041.3 403.1 5.1 19.1c.7 2.6 4 3.5 5.9 1.6l14-14c1.9-1.9 1-5.2-1.6-5.9l-19.1-5.1c-2.6-.8-5.1 1.6-4.3 4.3z" fill="#00dffc"/><path d="m380.6 577.8-12.2-12.2c-1.2-1.2-1.2-3.1 0-4.3l12.2-12.2c1.2-1.2 3.1-1.2 4.3 0l12.2 12.2c1.2 1.2 1.2 3.1 0 4.3l-12.2 12.2c-1.1 1.2-3.1 1.2-4.3 0z" fill="#00c9a7"/><circle cx="1494.3" cy="353.5" fill="#00c9a7" r="12"/><path d="m992 21.5h-15.9c-1.5 0-2.8-1.3-2.8-2.8v-15.9c0-1.5 1.3-2.8 2.8-2.8h15.9c1.5 0 2.8 1.3 2.8 2.8v15.9c0 1.5-1.3 2.8-2.8 2.8z" fill="#de4437"/><path d="m19.3 310.2-17 4.6c-2.3.6-3.1 3.6-1.4 5.3l12.4 12.4c1.7 1.7 4.7.9 5.3-1.4l4.6-17c.6-2.4-1.5-4.5-3.9-3.9z" fill="#377dff"/></svg>