<svg enable-background="new 0 0 508 508" viewBox="0 0 508 508" xmlns="http://www.w3.org/2000/svg"><circle cx="254" cy="254" fill="#fd8469" r="254"/><path d="m329.6 112.8s3.2 31.2-10.4 44.4c-13.6 13.6-12 26-12 26-.4 2.8-2.4 4.8-3.6 5.6-3.6 2.4-9.2 1.6-10.4-2-2.8-7.6-1.6-17.2 1.2-26.8l-36.4 40.8c-3.2 3.6-8.4 4-12 .8-4-3.2-4.4-8.8-1.2-12.8l31.2-36.4c.4-.4.4-.8 0-1.2s-.8-.4-1.2 0l-34.8 40c-2.8 3.2-7.6 4.4-11.2 2-.4 0-.4-.4-.8-.4-3.6-3.2-4-8.8-.8-12.4l33.2-38c.4-.4.4-.8 0-1.2s-.8-.4-1.2 0l-25.6 29.2c-3.2 4-9.2 4-12.8 0-2.8-3.2-2.4-8 .4-11.2l28-32c.4-.4.4-.8 0-1.2s-.8-.4-1.2 0l-18 20c-2.8 3.2-8 3.6-11.2.8-3.6-2.8-4-8.4-.8-12l23.2-25.6c10-10.8 21.2-20.8 33.2-29.2l10.4-7.2s7.2-4.8 15.6-11.6l35.6 36.4c-3.6 6-6.4 11.6-6.4 15.2z" fill="#fff"/><path d="m330.8 12-39.6 40.4 51.6 52.4 57.2-58.4c-20.8-14.8-44-26.4-69.2-34.4z" fill="#ffd05b"/><path d="m290.4 372.8-23.2 25.6c-10 11.2-21.2 20.8-33.2 29.2l-10.4 7.2s-7.2 4.8-15.6 11.6l-35.6-36.4c4-6 6.8-11.6 6.4-15.2 0 0-3.2-31.2 10.4-44.4 13.6-13.6 12-26 12-26 .4-2.8 2.4-4.8 3.6-5.6 3.6-2.4 9.2-1.6 10.4 2 2.8 7.6 1.6 17.2-1.2 26.8l36-40.4c3.2-3.6 8.4-4 12-.8 4 3.2 4.4 8.8 1.2 12.8l-31.2 36.4c-.4.4-.4.8 0 1.2s.8.4 1.2 0l34.8-40c2.8-3.2 7.6-4.4 11.2-2 .4 0 .4.4.8.4 3.6 3.2 4 8.8.8 12.4l-33.2 38c-.4.4-.4.8 0 1.2s.8.4 1.2 0l25.6-29.2c3.2-4 9.2-4 12.8 0 2.8 3.2 2.4 8-.4 11.2l-28 32c-.4.4-.4.8 0 1.2s.8.4 1.2 0l17.6-20c2.8-3.2 8-3.6 11.2-.8 4.4 2.8 4.8 8 1.6 11.6z" fill="#fff"/><path d="m107.6 461.6c20.8 14.8 44.4 26.4 69.2 34.4l39.6-40.4-51.6-52.4z" fill="#324a5e"/><path d="m446.8 300.4-36.4 35.6c-6-4-11.6-6.8-15.2-6.4 0 0-31.2 3.2-44.4-10.4-13.6-13.6-26-12-26-12-2.8-.4-4.8-2.4-5.6-3.6-2.4-3.6-1.6-9.2 2-10.4 7.6-2.8 17.2-1.6 26.8 1.2l-40.8-36.4c-3.6-3.2-4-8.4-.8-12 3.2-4 8.8-4.4 12.8-1.2l36.4 31.2c.4.4.8.4 1.2 0s.4-.8 0-1.2l-40-34.8c-3.2-2.8-4.4-7.6-2-11.2 0-.4.4-.4.4-.8 3.2-3.6 8.8-4 12.4-.8l38 33.2c.4.4.8.4 1.2 0s.4-.8 0-1.2l-29.2-25.6c-4-3.2-4-9.2 0-12.8 3.2-2.8 8-2.4 11.2.4l32 28c.4.4.8.4 1.2 0s.4-.8 0-1.2l-20-18c-3.2-2.8-3.6-8-.8-11.2 2.8-3.6 8.4-4 12-.8l25.6 23.2c11.2 10 20.8 21.2 29.2 33.2l7.2 10.4s4.8 6.8 11.6 15.6z" fill="#fff"/><path d="m461.6 400.4c14.8-20.8 26.4-44.4 34.4-69.2l-40.4-39.6-52.4 51.6z" fill="#54c0eb"/><path d="m202 262.4c-3.2 4-8.8 4.4-12.8 1.2l-36.4-31.2c-.4-.4-.8-.4-1.2 0s-.4.8 0 1.2l40 34.8c3.2 2.8 4.4 7.6 2 11.2 0 .4-.4.4-.4.8-3.2 3.6-8.8 4-12.4.8l-38-33.2c-.4-.4-.8-.4-1.2 0s-.4.8 0 1.2l29.2 25.6c4 3.2 4 9.2 0 12.8-3.2 2.8-8 2.4-11.2-.4l-32-28c-.4-.4-.8-.4-1.2 0s-.4.8 0 1.2l20 17.6c3.2 2.8 3.6 8 .8 11.2-2.8 3.6-8.4 4-11.6.8l-26-23.2c-10.8-10-20.8-21.2-29.2-33.2l-7.2-10.4s-4.8-7.2-11.6-15.6l36.4-35.6c6 4 11.6 6.8 15.2 6.4 0 0 31.2-3.2 44.4 10.4 13.6 13.6 26 12 26 12 2.8.4 4.8 2.4 5.6 3.6 2.4 3.6 1.6 9.2-2 10.4-7.6 2.8-17.2 1.6-26.8-1.2l40.4 36.4c3.6 3.2 4 8.4 1.2 12.4z" fill="#fff"/><path d="m12 177.2 40.4 39.6 52.4-51.6-58.4-57.6c-14.8 21.2-26.4 44.4-34.4 69.6z" fill="#4cdbc4"/></svg>